<svg width="58" height="53" viewBox="0 0 58 53" fill="none" xmlns="http://www.w3.org/2000/svg">
<path fill-rule="evenodd" clip-rule="evenodd" d="M13.0058 29.2587H7V6.5H16.7357C21.8564 6.5 25.207 9.69062 25.207 14.4844C25.207 19.3568 21.7616 22.4217 16.546 22.406H13.0058V29.2587ZM13.0058 11.2781V17.7536H15.3449C17.6049 17.7379 18.9325 16.4805 18.9167 14.4844C18.9325 12.504 17.6049 11.2938 15.3449 11.2781H13.0058ZM32.5423 22.2414C33.9599 22.2414 35.1091 21.0951 35.1091 19.681C35.1091 18.267 33.9599 17.1207 32.5423 17.1207C31.1247 17.1207 29.9755 18.267 29.9755 19.681C29.9755 21.0951 31.1247 22.2414 32.5423 22.2414ZM37.4833 42.4739C38.3578 41.1035 38.8223 39.5126 38.8223 37.888H41.3834C41.3834 39.328 41.1025 40.7477 40.5631 42.0698C40.311 42.6878 40.0025 43.2845 39.6397 43.8521L39.6366 43.857C38.498 45.6365 36.874 47.0551 34.9553 47.9462L34.9509 47.9483C33.0321 48.8384 30.8985 49.164 28.8006 48.8869L28.799 48.8867C26.701 48.6093 24.726 47.7406 23.1058 46.3827L23.1009 46.3787C21.4807 45.0192 20.2831 43.2268 19.6488 41.212L19.6477 41.2085C19.0137 39.1922 18.9701 37.0373 19.5221 34.9972L19.5229 34.9941C20.0752 32.9552 21.1994 31.1159 22.7634 29.6923L22.7682 29.688C23.268 29.2336 23.8061 28.8276 24.3749 28.4738C25.5808 27.7237 26.925 27.2077 28.3368 26.9604L28.3554 26.9571L28.794 29.4735L28.7941 29.474L28.792 29.4744L28.7798 29.4765C27.1787 29.757 25.6907 30.4864 24.4897 31.5795L24.485 31.5838C23.2829 32.6795 22.419 34.0946 21.9947 35.6629L21.9939 35.666C21.5702 37.2342 21.6037 38.8905 22.0903 40.4404L22.0914 40.4439C22.5788 41.9939 23.4992 43.373 24.7447 44.4196L24.7495 44.4236C25.9969 45.4703 27.518 46.14 29.1339 46.3539L29.1355 46.3542C30.752 46.5679 32.3961 46.3168 33.8744 45.6302L33.8788 45.6282C35.3551 44.9415 36.6045 43.849 37.4801 42.4788L37.4833 42.4739ZM30.5459 25.0905C30.5459 24.1454 31.312 23.3793 32.2571 23.3793C33.2022 23.3793 33.9683 24.1454 33.9683 25.0905V32.4828H42.5285C43.0348 32.4828 43.4896 32.7032 43.8022 33.0533C43.8579 33.1037 43.9109 33.1582 43.9608 33.217L50.5944 41.032C51.2053 41.7517 51.1159 42.829 50.3946 43.4381C49.6734 44.0473 48.5934 43.9577 47.9825 43.2379L41.7509 35.8966H32.2607L32.2571 35.8966L32.2534 35.8966H32.2527C31.31 35.8966 30.5458 35.1324 30.5458 34.1897L30.5459 34.173V25.0905Z" fill="#26498F"/>
</svg>
