<svg width="22" height="22" viewBox="0 0 22 22" fill="none" xmlns="http://www.w3.org/2000/svg">
<mask id="mask0_228_4209" style="mask-type:luminance" maskUnits="userSpaceOnUse" x="2" y="2" width="18" height="18">
<path fill-rule="evenodd" clip-rule="evenodd" d="M2.59717 2.59705H19.3695V19.3611H2.59717V2.59705Z" fill="white"/>
</mask>
<g mask="url(#mask0_228_4209)">
<path fill-rule="evenodd" clip-rule="evenodd" d="M7.34497 3.85736C5.22653 3.85736 3.85766 5.30858 3.85766 7.5539V14.4041C3.85766 16.6503 5.22653 18.1007 7.34497 18.1007H14.6137C16.7372 18.1007 18.1094 16.6503 18.1094 14.4041V7.5539C18.1094 5.30858 16.7372 3.85736 14.6137 3.85736H7.34497ZM14.6137 19.3611H7.34494C4.50468 19.3611 2.59717 17.3687 2.59717 14.4041V7.55388C2.59717 4.58925 4.50468 2.59686 7.34494 2.59686H14.6137C17.4581 2.59686 19.3698 4.58925 19.3698 7.55388V14.4041C19.3698 17.3687 17.4581 19.3611 14.6137 19.3611V19.3611Z" fill="#61646B"/>
</g>
<path fill-rule="evenodd" clip-rule="evenodd" d="M5.3543 15.3531C5.198 15.3531 5.04254 15.296 4.9207 15.18C4.66776 14.9414 4.65768 14.5414 4.89717 14.2901L6.18117 12.9347C6.86098 12.2129 8.00801 12.1776 8.7332 12.8583L9.53822 13.675C9.76259 13.9019 10.1273 13.9061 10.3525 13.6843C10.4374 13.5843 12.2676 11.3617 12.2676 11.3617C12.6155 10.9398 13.1062 10.6793 13.6516 10.6255C14.1978 10.5776 14.728 10.7365 15.1507 11.0835C15.1868 11.1129 15.2196 11.1415 17.0649 13.0364C17.3078 13.2851 17.3036 13.6843 17.054 13.9271C16.8053 14.1717 16.4053 14.1641 16.1624 13.9154C16.1624 13.9154 14.4406 12.1482 14.3179 12.0289C14.1877 11.9221 13.9784 11.86 13.7726 11.8801C13.5633 11.9011 13.3751 12.0011 13.2415 12.1633C11.2886 14.5322 11.2651 14.5548 11.2331 14.5859C10.5121 15.2935 9.34831 15.2817 8.63993 14.5591C8.63993 14.5591 7.85844 13.7658 7.84499 13.7498C7.65088 13.57 7.30467 13.5818 7.09711 13.8011L5.81143 15.1565C5.68707 15.2876 5.52068 15.3531 5.3543 15.3531V15.3531Z" fill="#61646B"/>
<path fill-rule="evenodd" clip-rule="evenodd" d="M8.1073 7.74709C7.6426 7.74709 7.26446 8.12523 7.26446 8.59077C7.26446 9.0563 7.6426 9.43528 8.10814 9.43528C8.57367 9.43528 8.95265 9.0563 8.95265 8.59077C8.95265 8.12607 8.57367 7.74793 8.1073 7.74709M8.10811 10.6958C6.94764 10.6958 6.00397 9.75125 6.00397 8.59078C6.00397 7.43031 6.94764 6.48663 8.10811 6.48663C9.26943 6.48747 10.2131 7.43199 10.2131 8.59078C10.2131 9.75125 9.26859 10.6958 8.10811 10.6958" fill="#61646B"/>
</svg>
