<svg width="104" height="53" viewBox="0 0 104 53" fill="none" xmlns="http://www.w3.org/2000/svg">
<ellipse cx="78.8797" cy="43.0612" rx="15.9406" ry="6.42983" fill="#442F1A"/>
<path d="M94.7311 24.557C92.6193 35.9586 71.4562 41.7108 45.7548 43.4185C22.0809 43.4185 9.00012 33.9635 9.00012 24.557C9.00012 13.8165 20.2386 6.80594 43.9126 6.80594C74.871 5.68245 94.7311 15.1505 94.7311 24.557Z" fill="url(#paint0_linear_286_13363)"/>
<path d="M37.6216 16.7168L43.9175 15.1986" stroke="white" stroke-linecap="round"/>
<path d="M34.2728 21.0927L39.4524 19.5745" stroke="white" stroke-width="0.7" stroke-linecap="round"/>
<path d="M57.311 21.4446L61.1532 21.0035" stroke="white" stroke-width="0.4" stroke-linecap="round"/>
<path fill-rule="evenodd" clip-rule="evenodd" d="M44.3301 25.4686C40.8842 25.4686 37.6634 25.827 34.9232 26.449C32.9199 25.8372 30.3314 25.4686 27.505 25.4686C21.1485 25.4686 15.9956 27.3333 15.9956 29.6335C15.9956 30.8101 17.3437 31.8727 19.5115 32.6302C19.2383 32.7401 19.0625 32.8682 19.0162 33.0061C15.1512 33.6777 12.4828 35.1075 12.4828 36.7628C12.4828 39.063 17.6357 40.9277 23.9922 40.9277C24.359 40.9277 24.7218 40.9215 25.0799 40.9094C27.4571 42.3505 32.1021 43.3292 37.443 43.3292C45.2036 43.3292 51.4947 41.2629 51.4947 38.714C51.4947 38.5948 51.4809 38.4766 51.4539 38.3597C57.8932 37.3323 62.4032 34.9544 62.4032 32.1851C62.4032 28.4756 54.3116 25.4686 44.3301 25.4686Z" fill="url(#paint1_linear_286_13363)"/>
<path fill-rule="evenodd" clip-rule="evenodd" d="M54.1988 27.9691C53.0091 27.9691 51.8971 28.1684 50.951 28.5142C50.2593 28.1741 49.3656 27.9691 48.3898 27.9691C46.1952 27.9691 44.4161 29.0059 44.4161 30.2848C44.4161 30.9389 44.8815 31.5297 45.6299 31.9508C45.5355 32.0119 45.4749 32.0831 45.4589 32.1598C44.1244 32.5332 43.2031 33.3281 43.2031 34.2485C43.2031 35.5274 44.9822 36.5641 47.1769 36.5641C47.3035 36.5641 47.4288 36.5607 47.5524 36.5539C48.3732 37.3552 49.9769 37.8993 51.8209 37.8993C54.5003 37.8993 56.6724 36.7505 56.6724 35.3333C56.6724 35.267 56.6676 35.2013 56.6583 35.1363C58.8816 34.5651 60.4387 33.2431 60.4387 31.7034C60.4387 29.641 57.645 27.9691 54.1988 27.9691Z" fill="url(#paint2_linear_286_13363)"/>
<path d="M68.9637 37.6507C70.0527 42.9898 73.1602 42.7018 64.3706 44.4945C55.581 46.2872 31.9701 45.674 34.8149 42.4178C41.9176 34.2878 42.2874 33.0223 51.077 31.2296C59.8666 29.4368 67.8747 32.3117 68.9637 37.6507Z" fill="url(#paint3_linear_286_13363)"/>
<path d="M56.0202 33.4612C55.2701 31.1393 56.5709 29.4276 57.3151 28.8621L69.371 43.6417L63.5217 44.7134C60.7533 42.704 56.9579 36.3635 56.0202 33.4612Z" fill="#442F1A"/>
<path fill-rule="evenodd" clip-rule="evenodd" d="M74.7144 20.5194C74.7865 20.4163 74.8245 20.3094 74.8245 20.1997C74.8245 19.3613 72.6037 18.6816 69.8642 18.6816C67.1247 18.6816 64.9039 19.3613 64.9039 20.1997C64.9039 21.0382 67.1247 21.7179 69.8642 21.7179C70.5466 21.7179 71.1968 21.6757 71.7885 21.5994C72.2408 21.6741 72.7947 21.718 73.393 21.718C74.919 21.718 76.1561 21.4323 76.1561 21.0799C76.1561 20.838 75.5734 20.6276 74.7144 20.5194Z" fill="url(#paint4_linear_286_13363)"/>
<path fill-rule="evenodd" clip-rule="evenodd" d="M78.5436 24.4767C78.6609 24.3071 78.7226 24.131 78.7226 23.9504C78.7226 22.5695 75.1094 21.45 70.6523 21.45C66.1952 21.45 62.582 22.5695 62.582 23.9504C62.582 25.3314 66.1952 26.4509 70.6523 26.4509C71.7628 26.4509 72.8209 26.3814 73.7837 26.2557C74.5195 26.3786 75.4204 26.4508 76.3935 26.4508C78.8763 26.4508 80.889 25.9803 80.889 25.3999C80.889 25.0016 79.941 24.655 78.5436 24.4767Z" fill="url(#paint5_linear_286_13363)"/>
<path fill-rule="evenodd" clip-rule="evenodd" d="M73.4801 28.0487C73.5424 27.879 73.5752 27.703 73.5752 27.5225C73.5752 26.1415 71.6541 25.022 69.2842 25.022C66.9143 25.022 64.9932 26.1415 64.9932 27.5225C64.9932 28.9034 66.9143 30.0229 69.2842 30.0229C69.8747 30.0229 70.4373 29.9534 70.9493 29.8277C71.3405 29.9505 71.8195 30.0228 72.3368 30.0228C73.6569 30.0228 74.7271 29.5523 74.7271 28.9719C74.7271 28.5735 74.223 28.2269 73.4801 28.0487Z" fill="url(#paint6_linear_286_13363)"/>
<path fill-rule="evenodd" clip-rule="evenodd" d="M64.8176 28.8527C64.88 28.683 64.9129 28.5068 64.9129 28.3262C64.9129 26.9453 62.9917 25.8257 60.6219 25.8257C58.252 25.8257 56.3308 26.9453 56.3308 28.3262C56.3308 29.7072 58.252 30.8267 60.6219 30.8267C61.2122 30.8267 61.7746 30.7573 62.2865 30.6316C62.6778 30.7545 63.157 30.8268 63.6745 30.8268C64.9947 30.8268 66.0648 30.3563 66.0648 29.7759C66.0648 29.3775 65.5607 29.0309 64.8176 28.8527Z" fill="url(#paint7_linear_286_13363)"/>
<path fill-rule="evenodd" clip-rule="evenodd" d="M66.9285 29.2099C66.9657 29.0402 66.9853 28.8641 66.9853 28.6835C66.9853 27.3025 65.8397 26.183 64.4264 26.183C63.0132 26.183 61.8676 27.3025 61.8676 28.6835C61.8676 30.0645 63.0132 31.184 64.4264 31.184C64.7785 31.184 65.1139 31.1145 65.4192 30.9888C65.6525 31.1117 65.9382 31.184 66.2468 31.184C67.0341 31.184 67.6722 30.7135 67.6722 30.1331C67.6722 29.7347 67.3716 29.3881 66.9285 29.2099Z" fill="url(#paint8_linear_286_13363)"/>
<path d="M75.5385 26.6752C75.2404 27.4582 75.468 27.6006 74.7564 27.3298C74.0449 27.059 72.6286 26.1098 72.9267 25.3267C73.2247 24.5437 74.0782 24.4961 74.7898 24.7669C75.5013 25.0378 75.8365 25.8921 75.5385 26.6752Z" fill="url(#paint9_linear_286_13363)"/>
<path fill-rule="evenodd" clip-rule="evenodd" d="M71.5973 21.5394C72.9158 22.1577 73.8731 22.8084 73.0914 23.0498C71.985 23.3914 71.9761 23.8391 72.1099 24.0203C75.2149 25.2935 75.2774 26.2071 74.9205 26.5047C70.7418 26.6471 61.4476 27.2656 57.7002 28.601C53.9528 29.9364 60.7695 38.1291 64.5912 41.8558L91.5161 42.6149V34.0357C81.2775 34.137 76.939 31.7739 74.3973 30.3895C74.0153 30.1814 73.6738 29.9954 73.359 29.8432C71.4318 28.9115 75.4707 27.9022 77.731 27.514L81.0769 24.4084C81.3595 23.7873 81.0858 22.4597 77.731 22.1181C76.1927 21.9614 74.9966 21.7526 74.0502 21.5394H71.5973Z" fill="#9B8670"/>
<path fill-rule="evenodd" clip-rule="evenodd" d="M75.2402 21.5394C76.879 22.2231 78.0687 22.9427 77.097 23.2096C75.7217 23.5874 75.7106 24.0825 75.877 24.2829C79.7367 25.6911 79.8143 26.7014 79.3707 27.0305C74.1764 27.1879 62.6233 27.872 57.965 29.3489C53.3068 30.8257 61.8052 40.1007 66.5559 44.2222L99.9999 43.0612L99.9999 35.3593C87.2728 35.4713 81.8799 32.8579 78.7204 31.3268C78.2455 31.0967 77.8211 30.891 77.4297 30.7227C75.0341 29.6923 80.0546 28.5761 82.8643 28.1468L87.0235 24.7122C87.3747 24.0253 87.0346 22.557 82.8643 22.1792C80.9527 22.006 79.4661 21.7751 78.2898 21.5394H75.2402Z" fill="#9B8670"/>
<path fill-rule="evenodd" clip-rule="evenodd" d="M70.4405 15.1094C70.6075 15.1094 70.7678 15.1407 70.9168 15.1983C70.9912 15.1407 71.0714 15.1094 71.1549 15.1094C71.285 15.1094 71.407 15.1855 71.5121 15.3185C71.6172 15.1855 71.7392 15.1094 71.8694 15.1094C72.0674 15.1094 72.2466 15.2856 72.376 15.5703C72.6914 15.2856 73.1282 15.1094 73.6109 15.1094C74.0935 15.1094 74.5303 15.2856 74.8457 15.5702C74.9751 15.2856 75.1542 15.1094 75.3522 15.1094C75.5913 15.1094 75.803 15.3663 75.9327 15.7608C76.0623 15.3663 76.274 15.1094 76.5131 15.1094C76.7953 15.1094 77.0393 15.4673 77.1554 15.9869C77.3717 15.7199 77.6644 15.556 77.9867 15.556C78.2957 15.556 78.5775 15.7067 78.7909 15.9544C78.9914 15.4524 79.3958 15.1094 79.8621 15.1094C80.1535 15.1094 80.4208 15.2434 80.6292 15.4665C80.7605 15.2434 80.9287 15.1094 81.1122 15.1094C81.5315 15.1094 81.8713 15.8091 81.8713 16.6722C81.8713 17.5353 81.5315 18.235 81.1122 18.235C80.9287 18.235 80.7605 18.1009 80.6292 17.8778C80.4208 18.1009 80.1535 18.235 79.8621 18.235C79.7921 18.235 79.7236 18.2273 79.6569 18.2124L77.8081 20.7356C72.0212 21.4857 67.9847 20.423 66.6898 19.7979C66.868 18.8478 68.1278 17.3178 69.0438 16.3411C69.1827 15.637 69.7553 15.1094 70.4405 15.1094Z" fill="url(#paint10_linear_286_13363)"/>
<path fill-rule="evenodd" clip-rule="evenodd" d="M74.0688 20.5852C74.3307 19.1067 75.2175 16.4402 77.0616 15.7382C78.0422 15.365 78.6526 14.7455 79.2482 14.1412C80.1441 13.2319 81.0064 12.3568 83.0449 12.4057C84.4714 12.4398 85.0379 12.0718 85.5636 11.7304C86.2885 11.2595 86.9358 10.839 89.6534 11.5928L87.1529 23.2162L85.9473 25.2076L77.5974 23.9884L74.0179 21.6929C73.902 21.6943 73.7945 21.6628 73.7114 21.5956C73.4903 21.4167 73.5256 21.0518 73.7903 20.7808C73.8735 20.6956 73.9694 20.6298 74.0688 20.5852Z" fill="url(#paint11_linear_286_13363)"/>
<path d="M73.4718 22.6287C73.3555 22.9341 73.5828 23.0423 72.9048 22.7843C72.2267 22.5262 70.8004 21.8234 70.9166 21.518C71.0329 21.2126 71.7765 21.3503 72.4546 21.6084C73.1326 21.8665 73.588 22.3233 73.4718 22.6287Z" fill="url(#paint12_linear_286_13363)"/>
<path fill-rule="evenodd" clip-rule="evenodd" d="M79.4197 25.0918C79.4197 25.0918 79.4197 25.0918 79.4197 25.0918C79.454 25.0918 79.4818 25.0517 79.4818 25.0022C79.4818 24.9528 79.454 24.9127 79.4197 24.9127C79.418 24.9127 79.4164 24.9128 79.4148 24.9129L78.1047 24.9842C78.104 24.9842 78.1034 24.9842 78.1027 24.9842C78.0547 24.9842 78.0157 25.0403 78.0157 25.1096C78.0157 25.1789 78.0547 25.235 78.1027 25.235C78.1027 25.235 78.1027 25.235 78.1027 25.235V25.2351L78.1041 25.235C78.1076 25.2349 78.1111 25.2345 78.1145 25.2339L79.4197 25.0918V25.0918Z" fill="#F7C28E"/>
<path fill-rule="evenodd" clip-rule="evenodd" d="M79.4067 25.4787C79.4089 25.4782 79.4113 25.4779 79.4137 25.4777C79.4479 25.4755 79.477 25.5137 79.4785 25.5631C79.4801 25.6125 79.4537 25.6543 79.4195 25.6567L79.4195 25.6568L78.1182 25.8848C78.1161 25.8853 78.1138 25.8857 78.1116 25.886L78.1085 25.8865L78.1085 25.8863C78.1084 25.8863 78.1084 25.8863 78.1083 25.8863C78.0603 25.8895 78.0197 25.8359 78.0175 25.7667C78.0153 25.6975 78.0524 25.6389 78.1004 25.6357C78.1015 25.6357 78.1025 25.6356 78.1036 25.6356L79.4067 25.4787Z" fill="#F7C28E"/>
<path fill-rule="evenodd" clip-rule="evenodd" d="M79.4058 26.0319L79.406 26.0318L79.406 26.0319C79.4401 26.0273 79.4703 26.0634 79.4735 26.1126C79.4768 26.1618 79.4518 26.2055 79.4177 26.2102C79.4177 26.2102 79.4176 26.2102 79.4176 26.2102C79.3834 26.2149 79.3531 26.1788 79.3499 26.1295C79.3468 26.0826 79.3694 26.0407 79.4011 26.0328C79.4026 26.0324 79.4042 26.0321 79.4058 26.0319L79.4011 26.0328M78.1303 26.5294L78.1162 26.5329L78.0997 26.2833C78.0997 26.2833 78.0997 26.2833 78.0997 26.2833C78.0519 26.2899 78.0168 26.3511 78.0213 26.4201C78.0259 26.489 78.0684 26.5396 78.1162 26.533C78.121 26.5324 78.1257 26.5311 78.1303 26.5294Z" fill="#F7C28E"/>
<path fill-rule="evenodd" clip-rule="evenodd" d="M78.1173 26.8452L79.416 26.5284L79.416 26.5285C79.4161 26.5285 79.4161 26.5285 79.4162 26.5284C79.4502 26.522 79.4814 26.5566 79.4858 26.6057C79.4903 26.6547 79.4663 26.6997 79.4323 26.7061C79.4319 26.7062 79.4316 26.7062 79.4312 26.7063L78.1517 27.0904C78.1478 27.092 78.1437 27.0932 78.1396 27.094L78.1392 27.0941L78.1392 27.0941C78.1392 27.0941 78.1391 27.0941 78.1391 27.0941C78.0915 27.103 78.0479 27.0546 78.0416 26.986C78.0354 26.9173 78.069 26.8543 78.1166 26.8454C78.1168 26.8453 78.1171 26.8453 78.1173 26.8452Z" fill="#F7C28E"/>
<path d="M39.7204 33.0705C39.5378 33.8196 37.7081 34.1974 35.486 34.3096C33.4392 34.3096 32.3082 33.6885 32.3082 33.0705C32.3082 32.365 33.2799 31.9044 35.3267 31.9044C38.0033 31.8306 39.7204 32.4526 39.7204 33.0705Z" fill="#B2D1ED" fill-opacity="0.7"/>
<path d="M31.5044 32.8535C31.401 33.4638 30.3649 33.7717 29.1066 33.8631C27.9475 33.8631 27.3071 33.357 27.3071 32.8535C27.3071 32.2786 27.8573 31.9033 29.0164 31.9033C30.5321 31.8432 31.5044 32.35 31.5044 32.8535Z" fill="#2F2F2F"/>
<path d="M20.8774 36.2372C20.7718 37.0694 19.7136 37.4893 18.4286 37.6139C17.2449 37.6139 16.5908 36.9238 16.5908 36.2372C16.5908 35.4532 17.1527 34.9415 18.3364 34.9415C19.8844 34.8595 20.8774 35.5505 20.8774 36.2372Z" fill="#2F2F2F"/>
<path d="M32.1296 36.696C31.9954 37.2508 30.6507 37.5307 29.0176 37.6138C27.5133 37.6138 26.6821 37.1537 26.6821 36.696C26.6821 36.1733 27.3962 35.8322 28.9005 35.8322C30.8677 35.7775 32.1296 36.2382 32.1296 36.696Z" fill="#B2D1ED" fill-opacity="0.5"/>
<path fill-rule="evenodd" clip-rule="evenodd" d="M91.4335 5.29133C92.0631 4.23386 93.4428 3.5 95.0437 3.5C97.1409 3.5 98.8587 4.75947 99.0073 6.35602L99.0178 6.35761L100 36.81L75.6292 31.8756C75.4033 31.8493 75.1972 31.8077 75.0155 31.7514L74.8167 31.7111L74.8397 31.6893C74.4886 31.5483 74.2553 31.3415 74.1843 31.0745C73.958 30.2234 75.4671 29.0832 77.5551 28.5279C77.8287 28.4551 78.0987 28.396 78.3618 28.3501L78.586 28.1376C78.0158 24.827 79.154 23.9931 80.1364 23.2733C80.8481 22.7519 81.478 22.2903 81.3174 20.9905C81.1296 19.4711 81.7322 18.95 82.3619 18.4055C83.0145 17.8411 83.6962 17.2516 83.5571 15.4994C83.3471 12.8522 89.1196 5.83302 91.4335 5.29133Z" fill="url(#paint13_linear_286_13363)"/>
<path d="M78.0356 27.2905H77.5919L77.9025 27.5789L78.2797 27.6011L78.3462 27.4458L78.0356 27.2905Z" fill="#392620"/>
<path d="M77.9247 27.5124L78.3462 27.4459V27.6233L77.9247 27.6899V27.5124Z" fill="#442F1A"/>
<path d="M77.9247 27.6899V27.5124L77.5919 27.2905V27.468L77.9247 27.6899Z" fill="#DBAF92"/>
<path d="M77.9274 24.3571L78.1578 24.399L78.1788 27.4162L77.9274 27.4581V24.3571Z" fill="#442F1A"/>
<path d="M77.7177 24.3781L77.9272 24.3571V27.4581L77.7177 27.3115V24.3781Z" fill="#DBAF92"/>
<path fill-rule="evenodd" clip-rule="evenodd" d="M77.7719 25.0514L77.7726 25.0513V25.0514C77.7727 25.0514 77.7728 25.0514 77.7728 25.0514C77.811 25.0514 77.8419 25.0965 77.8419 25.1523C77.8419 25.208 77.811 25.2532 77.7728 25.2532C77.7727 25.2532 77.7725 25.2532 77.7724 25.2532L76.3231 25.4129C76.3182 25.414 76.3132 25.4146 76.308 25.4146C76.2546 25.4146 76.2113 25.3514 76.2113 25.2733C76.2113 25.1954 76.2546 25.1321 76.308 25.1321V25.132L77.7684 25.0516C77.7696 25.0515 77.7708 25.0514 77.7719 25.0514Z" fill="#F7C28E"/>
<path fill-rule="evenodd" clip-rule="evenodd" d="M77.7657 25.6881L77.7663 25.688L77.7663 25.688C77.8044 25.6856 77.8366 25.7286 77.8384 25.7842C77.8401 25.8399 77.8106 25.8871 77.7725 25.8896C77.7724 25.8896 77.7724 25.8896 77.7723 25.8896L76.3297 26.1456C76.3247 26.1471 76.3196 26.148 76.3144 26.1484C76.2611 26.152 76.2158 26.0917 76.2134 26.0137C76.211 25.9358 76.2523 25.8697 76.3056 25.8662C76.3056 25.8662 76.3057 25.8662 76.3057 25.8662L76.3057 25.8661L77.7614 25.6886L77.7657 25.6881Z" fill="#F7C28E"/>
<path fill-rule="evenodd" clip-rule="evenodd" d="M77.7518 26.3132C77.7537 26.3128 77.7556 26.3124 77.7575 26.3121C77.7955 26.3068 77.8292 26.3475 77.8328 26.403C77.8365 26.4584 77.8086 26.5077 77.7707 26.513L77.7707 26.513L76.3374 26.8729C76.3329 26.8745 76.3282 26.8757 76.3234 26.8764L76.3231 26.8765L76.3231 26.8764C76.2699 26.8838 76.2228 26.8268 76.2177 26.7492C76.2126 26.6715 76.2516 26.6026 76.3048 26.5952C76.305 26.5952 76.3051 26.5952 76.3053 26.5951L77.7518 26.3132Z" fill="#F7C28E"/>
<path fill-rule="evenodd" clip-rule="evenodd" d="M76.3237 27.2283L77.7688 26.8712L77.7688 26.8714C77.7689 26.8713 77.7689 26.8713 77.7689 26.8713C77.8067 26.8641 77.8414 26.9031 77.8464 26.9583C77.8513 27.0136 77.8246 27.0642 77.7868 27.0714C77.7865 27.0715 77.7861 27.0716 77.7858 27.0716L76.3635 27.504C76.3587 27.5061 76.3537 27.5076 76.3486 27.5086C76.2956 27.5187 76.247 27.4642 76.2401 27.3868C76.2332 27.3095 76.2705 27.2386 76.3235 27.2285C76.3236 27.2285 76.3236 27.2284 76.3237 27.2284L76.3237 27.2283Z" fill="#F7C28E"/>
<path d="M76.1655 28.057H75.6478L76.0102 28.3935L76.4502 28.4194L76.5278 28.2382L76.1655 28.057Z" fill="#392620"/>
<path d="M76.036 28.316L76.5278 28.2383V28.4454L76.036 28.5231V28.316Z" fill="#442F1A"/>
<path d="M76.0361 28.5229V28.3158L75.6478 28.057V28.2641L76.0361 28.5229Z" fill="#DBAF92"/>
<path d="M76.0389 24.6347L76.3078 24.6836L76.3323 28.2037L76.0389 28.2526V24.6347Z" fill="#442F1A"/>
<path d="M75.7946 24.6591L76.039 24.6347V28.2526L75.7946 28.0814V24.6591Z" fill="#DBAF92"/>
<path fill-rule="evenodd" clip-rule="evenodd" d="M75.8286 25.4681C75.8668 25.4681 75.8977 25.5133 75.8977 25.569C75.8977 25.6247 75.8668 25.6699 75.8286 25.6699V25.6699L74.3762 25.83C74.373 25.8306 74.3697 25.8309 74.3664 25.831L74.364 25.8313V25.8311C74.364 25.8311 74.3639 25.8311 74.3639 25.8311C74.3105 25.8311 74.2672 25.7679 74.2672 25.6898C74.2672 25.6118 74.3105 25.5486 74.3639 25.5486C74.3649 25.5486 74.3659 25.5486 74.3668 25.5486L75.8233 25.4684C75.8251 25.4682 75.8268 25.4681 75.8286 25.4681C75.8286 25.4681 75.8286 25.4681 75.8286 25.4681Z" fill="#F7C28E"/>
<path fill-rule="evenodd" clip-rule="evenodd" d="M75.822 26.1047L75.8223 26.1047L75.8223 26.1047C75.8223 26.1047 75.8223 26.1047 75.8223 26.1047C75.8605 26.1022 75.8928 26.1452 75.8945 26.2009C75.8962 26.2566 75.8668 26.3038 75.8286 26.3063C75.8286 26.3063 75.8285 26.3063 75.8285 26.3063L74.3846 26.5625C74.3801 26.5638 74.3756 26.5646 74.3709 26.5649L74.3705 26.565L74.3705 26.565C74.3705 26.565 74.3705 26.565 74.3704 26.565C74.3171 26.5685 74.2718 26.5082 74.2694 26.4303C74.267 26.3524 74.3083 26.2863 74.3616 26.2827C74.3619 26.2827 74.3621 26.2827 74.3624 26.2827L75.8174 26.1053C75.8189 26.105 75.8205 26.1048 75.822 26.1047Z" fill="#F7C28E"/>
<path fill-rule="evenodd" clip-rule="evenodd" d="M75.8075 26.7298C75.8095 26.7293 75.8114 26.7289 75.8134 26.7286C75.8514 26.7233 75.8851 26.764 75.8888 26.8195C75.8924 26.875 75.8645 26.9242 75.8266 26.9295L75.8266 26.9295L74.394 27.2892C74.3891 27.2911 74.3841 27.2924 74.3789 27.2931C74.3257 27.3005 74.2785 27.2435 74.2734 27.1659C74.2684 27.0882 74.3074 27.0192 74.3606 27.0118C74.3606 27.0118 74.3606 27.0118 74.3607 27.0118L74.3606 27.0118L75.8075 26.7298Z" fill="#F7C28E"/>
<path fill-rule="evenodd" clip-rule="evenodd" d="M75.818 27.2895C75.8202 27.2888 75.8224 27.2882 75.8247 27.2878C75.8625 27.2806 75.8972 27.3195 75.9021 27.3748C75.9071 27.4299 75.8805 27.4805 75.8427 27.4879L75.8427 27.4879L74.4185 27.9209C74.4142 27.9227 74.4097 27.9241 74.4051 27.925L74.4047 27.9251L74.4047 27.9251C74.4047 27.9251 74.4046 27.9251 74.4046 27.9251C74.3516 27.9352 74.3031 27.8807 74.2961 27.8033C74.2892 27.726 74.3266 27.6551 74.3795 27.645C74.3798 27.6449 74.38 27.6449 74.3803 27.6448L75.818 27.2895Z" fill="#F7C28E"/>
<path d="M74.3602 28.4738H73.8425L74.2049 28.8102L74.6449 28.8361L74.7225 28.6549L74.3602 28.4738Z" fill="#392620"/>
<path d="M74.231 28.7326L74.7227 28.6549V28.862L74.231 28.9396V28.7326Z" fill="#442F1A"/>
<path d="M74.2308 28.9396V28.7326L73.8425 28.4738V28.6808L74.2308 28.9396Z" fill="#DBAF92"/>
<path d="M74.2336 25.0513L74.5025 25.1002L74.527 28.6203L74.2336 28.6692V25.0513Z" fill="#442F1A"/>
<path d="M73.9891 25.0758L74.2336 25.0513V28.6692L73.9891 28.4981V25.0758Z" fill="#DBAF92"/>
<path fill-rule="evenodd" clip-rule="evenodd" d="M74.0152 26.0235L74.0153 26.0235V26.0235C74.0566 26.0236 74.0901 26.0768 74.0901 26.1424C74.0901 26.208 74.0566 26.2612 74.0152 26.2612M72.4439 26.4496C72.4391 26.4507 72.4341 26.4513 72.4291 26.4513L72.4439 26.4496ZM72.4287 26.4513C72.4286 26.4513 72.4286 26.4513 72.4285 26.4513C72.3707 26.4513 72.3238 26.3768 72.3238 26.2849C72.3238 26.193 72.3707 26.1185 72.4285 26.1185C72.4289 26.1185 72.4292 26.1185 72.4295 26.1185L72.4287 26.1186V26.4513ZM74.0096 26.0238C74.0114 26.0236 74.0133 26.0235 74.0152 26.0235L74.0096 26.0238Z" fill="#F7C28E"/>
<path fill-rule="evenodd" clip-rule="evenodd" d="M74.0012 26.7744C74.0036 26.7739 74.0059 26.7735 74.0084 26.7734C74.0497 26.7704 74.0847 26.8211 74.0865 26.8867C74.0884 26.9522 74.0565 27.0077 74.0153 27.0108L74.0153 27.0109L72.4513 27.3127C72.4463 27.3143 72.4412 27.3153 72.4359 27.3157L72.4358 27.3157L72.4358 27.3157C72.4357 27.3157 72.4357 27.3157 72.4357 27.3157C72.3779 27.3199 72.3289 27.2489 72.3262 27.157C72.3236 27.0652 72.3683 26.9874 72.4261 26.9832C72.4263 26.9832 72.4264 26.9832 72.4265 26.9832L74.0012 26.7744Z" fill="#F7C28E"/>
<path fill-rule="evenodd" clip-rule="evenodd" d="M73.9987 27.5086L73.999 27.5085L73.999 27.5085C74.0401 27.5023 74.0767 27.5503 74.0806 27.6156C74.0845 27.6809 74.0543 27.739 74.0132 27.7452C74.0131 27.7452 74.0131 27.7452 74.0131 27.7452L72.4616 28.1688C72.4563 28.171 72.4508 28.1726 72.4451 28.1734C72.3875 28.1821 72.3363 28.115 72.3309 28.0235C72.3254 27.9321 72.3676 27.8509 72.4252 27.8421L72.4252 27.842L73.9935 27.5097C73.9952 27.5092 73.997 27.5088 73.9987 27.5086Z" fill="#F7C28E"/>
<path fill-rule="evenodd" clip-rule="evenodd" d="M72.4456 28.588L74.0111 28.1673L74.0111 28.1674C74.0111 28.1674 74.0112 28.1673 74.0112 28.1673C74.0522 28.1588 74.0898 28.2047 74.0952 28.2698C74.1005 28.3349 74.0716 28.3946 74.0306 28.4031C74.0304 28.4031 74.0301 28.4032 74.0298 28.4032L72.4885 28.9128C72.4833 28.9151 72.478 28.9169 72.4726 28.9181C72.4152 28.93 72.3626 28.8657 72.3551 28.7746C72.3476 28.6835 72.3881 28.6 72.4454 28.5881C72.4455 28.588 72.4455 28.588 72.4456 28.588L72.4456 28.588Z" fill="#F7C28E"/>
<path d="M72.2493 29.7626H71.6207L72.0607 30.1712L72.595 30.2026L72.6893 29.9826L72.2493 29.7626Z" fill="#392620"/>
<path d="M72.0922 30.0767L72.6893 29.9824V30.2339L72.0922 30.3281V30.0767Z" fill="#442F1A"/>
<path d="M72.0922 30.3283V30.0769L71.6207 29.7626V30.014L72.0922 30.3283Z" fill="#DBAF92"/>
<path d="M72.0957 25.6068L72.4222 25.6661L72.4519 29.9405L72.0957 29.9999V25.6068Z" fill="#442F1A"/>
<path d="M71.799 25.6364L72.0958 25.6068V29.9999L71.799 29.7921V25.6364Z" fill="#DBAF92"/>
<path fill-rule="evenodd" clip-rule="evenodd" d="M71.9427 26.3017C71.9445 26.3014 71.9463 26.3012 71.9481 26.3012C71.9831 26.3012 72.0115 26.3646 72.0115 26.4427C72.0115 26.5207 71.9832 26.584 71.9483 26.5842V26.5843L70.6197 26.8083C70.6152 26.8099 70.6106 26.8107 70.6059 26.8107C70.557 26.8107 70.5173 26.722 70.5173 26.6126C70.5173 26.5033 70.5569 26.4146 70.6058 26.4145V26.4145L71.9427 26.3017Z" fill="#F7C28E"/>
<path fill-rule="evenodd" clip-rule="evenodd" d="M71.9418 27.1941L71.9424 27.194L71.9424 27.1941C71.9424 27.1941 71.9424 27.1941 71.9425 27.1941C71.9774 27.1905 72.007 27.2509 72.0086 27.329C72.0102 27.407 71.9832 27.4732 71.9482 27.4768C71.9481 27.4768 71.948 27.4768 71.9479 27.4768L70.6253 27.8359C70.6209 27.8378 70.6163 27.8391 70.6117 27.8396C70.5628 27.8446 70.5213 27.76 70.5191 27.6507C70.5169 27.5414 70.5547 27.4488 70.6036 27.4438L70.6036 27.4438L71.9383 27.1948L71.9418 27.1941Z" fill="#F7C28E"/>
<path fill-rule="evenodd" clip-rule="evenodd" d="M71.9464 28.3509C71.9465 28.3509 71.9465 28.3509 71.9465 28.3509C71.9813 28.3435 72.0069 28.2744 72.0036 28.1966C72.0002 28.1189 71.9693 28.0618 71.9345 28.0692C71.9327 28.0696 71.9309 28.0701 71.9291 28.0709L70.6028 28.4663L70.6028 28.4663C70.5541 28.4769 70.5184 28.5735 70.5231 28.6823C70.5277 28.7912 70.571 28.8711 70.6197 28.8607C70.6244 28.8597 70.6289 28.858 70.6333 28.8555L71.9464 28.351L71.9464 28.3509Z" fill="#F7C28E"/>
<path fill-rule="evenodd" clip-rule="evenodd" d="M71.9385 28.856C71.9405 28.8549 71.9426 28.854 71.9448 28.8534C71.9795 28.8433 72.0112 28.8979 72.0158 28.9754C72.0203 29.0528 71.9959 29.1238 71.9613 29.134L71.9613 29.1342L70.6562 29.7412C70.652 29.7439 70.6477 29.7459 70.6433 29.7472L70.6432 29.7472L70.6432 29.7472C70.6432 29.7472 70.6431 29.7472 70.6431 29.7472C70.5946 29.7614 70.5501 29.685 70.5437 29.5765C70.5374 29.468 70.5716 29.3685 70.6201 29.3544C70.6202 29.3544 70.6203 29.3543 70.6204 29.3543L71.9385 28.856Z" fill="#F7C28E"/>
<path d="M70.5464 30.8549H69.8156L70.3271 31.3299L70.9483 31.3664L71.0579 31.1106L70.5464 30.8549Z" fill="#392620"/>
<path d="M70.3636 31.2202L71.0579 31.1106V31.4029L70.3636 31.5125V31.2202Z" fill="#442F1A"/>
<path d="M70.3637 31.5126V31.2203L69.8156 30.8549V31.1472L70.3637 31.5126Z" fill="#DBAF92"/>
<path d="M70.3677 26.0235L70.7473 26.0925L70.7818 31.062L70.3677 31.1311V26.0235Z" fill="#442F1A"/>
<path d="M70.0227 26.058L70.3678 26.0235V31.1311L70.0227 30.8895V26.058Z" fill="#DBAF92"/>
<path d="M71.1942 32.1602H70.371L70.9472 32.6953L71.647 32.7365L71.7705 32.4484L71.1942 32.1602Z" fill="#392620"/>
<path d="M70.9884 32.5718L71.7705 32.4483V32.7776L70.9884 32.9011V32.5718Z" fill="#442F1A"/>
<path d="M70.9884 32.9011V32.5718L70.371 32.1602V32.4895L70.9884 32.9011Z" fill="#DBAF92"/>
<path d="M70.9929 26.7176L71.4206 26.7953L71.4594 32.3935L70.9929 32.4712V26.7176Z" fill="#442F1A"/>
<path d="M70.6042 26.7565L70.993 26.7176V32.4712L70.6042 32.1991V26.7565Z" fill="#DBAF92"/>
<path fill-rule="evenodd" clip-rule="evenodd" d="M71.4007 27.4127C71.3971 27.4123 71.3936 27.412 71.39 27.412C71.3169 27.412 71.2576 27.5083 71.2576 27.6271C71.2576 27.7459 71.3168 27.8421 71.3899 27.8422V27.8422L74.1696 28.183C74.1784 28.1851 74.1874 28.1863 74.1965 28.1863L74.1971 28.1864V28.1863C74.1971 28.1863 74.1971 28.1863 74.1971 28.1863C74.2995 28.1863 74.3825 28.0515 74.3825 27.8852C74.3825 27.7189 74.2995 27.5841 74.1971 27.5841C74.1968 27.5841 74.1964 27.5841 74.196 27.5841L71.4007 27.4127Z" fill="#F7C28E"/>
<path fill-rule="evenodd" clip-rule="evenodd" d="M71.4032 28.7693L71.4023 28.7691L71.4023 28.7692C71.3293 28.7639 71.2674 28.8557 71.2641 28.9743C71.2608 29.0929 71.3173 29.1935 71.3904 29.1989C71.3905 29.1989 71.3905 29.1989 71.3906 29.1989L74.1566 29.7448C74.1658 29.7478 74.1753 29.7497 74.185 29.7504C74.2873 29.758 74.374 29.6295 74.3786 29.4633C74.3833 29.2972 74.3042 29.1564 74.2019 29.1488C74.2018 29.1488 74.2018 29.1488 74.2018 29.1488L74.2018 29.1488L71.4117 28.7704C71.4089 28.7699 71.4061 28.7695 71.4032 28.7693Z" fill="#F7C28E"/>
<path fill-rule="evenodd" clip-rule="evenodd" d="M71.4194 30.0994L71.4188 30.0993L71.4188 30.0993C71.4188 30.0993 71.4188 30.0993 71.4188 30.0993C71.346 30.0881 71.2814 30.1748 71.2744 30.2931C71.2675 30.4113 71.3209 30.5163 71.3937 30.5276C71.3938 30.5276 71.3939 30.5276 71.394 30.5276L74.1397 31.2943C74.1489 31.2982 74.1584 31.3009 74.1681 31.3024C74.27 31.3181 74.3605 31.1967 74.3702 31.0311C74.3799 30.8657 74.3052 30.7187 74.2034 30.7029L74.2034 30.7028L71.4283 30.1014C71.4254 30.1006 71.4224 30.0999 71.4194 30.0994Z" fill="#F7C28E"/>
<path fill-rule="evenodd" clip-rule="evenodd" d="M71.4082 31.2945C71.4046 31.2932 71.4009 31.2922 71.3972 31.2914C71.3247 31.276 71.2582 31.359 71.2487 31.4768C71.2393 31.5945 71.2903 31.7024 71.3627 31.7179L71.3627 31.718L74.0916 32.6406C74.1003 32.6447 74.1093 32.6477 74.1185 32.6497L74.1188 32.6498L74.1188 32.6498C74.1188 32.6498 74.1189 32.6498 74.1189 32.6498C74.2204 32.6714 74.3135 32.5551 74.3267 32.3902C74.34 32.2253 74.2684 32.0742 74.1669 32.0527C74.1667 32.0526 74.1665 32.0526 74.1663 32.0525L71.4082 31.2945Z" fill="#F7C28E"/>
<path d="M74.5176 33.0491H73.5649L74.2318 33.6443L75.0416 33.6901L75.1845 33.3696L74.5176 33.0491Z" fill="#392620"/>
<path d="M74.2794 33.507L75.1845 33.3696V33.7359L74.2794 33.8733V33.507Z" fill="#442F1A"/>
<path d="M74.2794 33.8732V33.5069L73.5649 33.0491V33.4153L74.2794 33.8732Z" fill="#DBAF92"/>
<path d="M74.2845 26.9955L74.7794 27.082L74.8244 33.3087L74.2845 33.3952V26.9955Z" fill="#442F1A"/>
<path d="M73.8348 27.0388L74.2847 26.9955V33.3952L73.8348 33.0925V27.0388Z" fill="#DBAF92"/>
<g clip-path="url(#clip0_286_13363)">
<path fill-rule="evenodd" clip-rule="evenodd" d="M74.6928 28.2452C74.5768 28.2451 74.4828 28.1208 74.4828 27.9675C74.4828 27.8142 74.5768 27.6899 74.6928 27.6898C74.6929 27.6898 74.6929 27.6898 74.6929 27.6898C74.6984 27.6898 74.7038 27.6901 74.7091 27.6906L79.1477 27.912C79.1478 27.912 79.1478 27.912 79.1479 27.912C79.3104 27.912 79.4421 28.086 79.4421 28.3007C79.4421 28.5154 79.3104 28.6895 79.1479 28.6895C79.1479 28.6895 79.1479 28.6895 79.1478 28.6895V28.6895L79.1478 28.6895C79.1327 28.6894 79.1178 28.6879 79.1033 28.685L74.6928 28.2452Z" fill="#F7C28E"/>
<path fill-rule="evenodd" clip-rule="evenodd" d="M74.7287 29.4437C74.7233 29.4428 74.7179 29.4422 74.7125 29.4419C74.5965 29.4349 74.4983 29.5535 74.493 29.7066C74.4877 29.8598 74.5774 29.9897 74.6933 29.9967L74.6933 29.9967L79.084 30.7016C79.0984 30.7054 79.1132 30.7078 79.1284 30.7087L79.1284 30.7087L79.1284 30.7087C79.1284 30.7087 79.1284 30.7087 79.1284 30.7087C79.2907 30.7185 79.4283 30.5526 79.4357 30.3381C79.4431 30.1236 79.3175 29.9418 79.1552 29.932C79.1552 29.932 79.1552 29.932 79.1551 29.932L74.7287 29.4437Z" fill="#F7C28E"/>
<path fill-rule="evenodd" clip-rule="evenodd" d="M74.7394 31.1594L74.739 31.1594L74.739 31.1594C74.739 31.1594 74.739 31.1594 74.739 31.1594C74.6234 31.1449 74.5209 31.2568 74.5099 31.4095C74.4989 31.5622 74.5836 31.6977 74.6991 31.7122C74.6992 31.7123 74.6993 31.7123 74.6993 31.7123L79.0578 32.7024C79.0722 32.7072 79.087 32.7106 79.1022 32.7125C79.264 32.7329 79.4076 32.5761 79.423 32.3624C79.4384 32.1487 79.3198 31.9589 79.158 31.9385L79.158 31.9385L74.7546 31.1621C74.7496 31.161 74.7445 31.1601 74.7394 31.1594Z" fill="#F7C28E"/>
<path fill-rule="evenodd" clip-rule="evenodd" d="M74.7059 32.6986L74.7046 32.6983L74.7046 32.6983C74.7045 32.6983 74.7045 32.6983 74.7045 32.6983C74.5894 32.6785 74.4839 32.7856 74.4689 32.9377C74.4538 33.0898 74.5349 33.2291 74.65 33.249C74.6503 33.249 74.6505 33.2491 74.6507 33.2491L78.9803 34.44C78.9944 34.4454 79.009 34.4494 79.024 34.452L79.0241 34.452L79.0241 34.452C79.0241 34.452 79.0241 34.452 79.0241 34.452C79.1852 34.4798 79.3329 34.3298 79.3539 34.1169C79.375 33.904 79.2614 33.7089 79.1003 33.6811C79.1003 33.6811 79.1002 33.6811 79.1002 33.6811L74.7189 32.7015C74.7146 32.7003 74.7103 32.6994 74.7059 32.6986Z" fill="#F7C28E"/>
</g>
<path d="M79.3868 34.4104H78.2863L79.0567 35.1258L79.9921 35.1808L80.1572 34.7956L79.3868 34.4104Z" fill="#392620"/>
<path d="M79.1117 34.9607L80.1572 34.7956V35.2358L79.1117 35.4009V34.9607Z" fill="#442F1A"/>
<path d="M79.1117 35.4009V34.9607L78.2863 34.4104V34.8506L79.1117 35.4009Z" fill="#DBAF92"/>
<path d="M79.1178 27.1345L79.6895 27.2384L79.7415 34.7223L79.1178 34.8262V27.1345Z" fill="#442F1A"/>
<path d="M78.598 27.1864L79.1177 27.1345V34.8262L78.598 34.4624V27.1864Z" fill="#DBAF92"/>
<path fill-rule="evenodd" clip-rule="evenodd" d="M79.8254 28.1074C79.8178 28.1068 79.8101 28.1065 79.8023 28.1065C79.6428 28.1065 79.5135 28.2358 79.5135 28.3953C79.5135 28.5547 79.6428 28.684 79.8023 28.684V28.684L85.8637 29.1415C85.8828 29.1443 85.9023 29.1458 85.9222 29.1459L85.9237 29.146V29.1459C86.1469 29.1459 86.3279 28.9649 86.3279 28.7417C86.3279 28.5184 86.1469 28.3374 85.9236 28.3374C85.9227 28.3374 85.9218 28.3374 85.9209 28.3374L79.8254 28.1074Z" fill="#F7C28E"/>
<path fill-rule="evenodd" clip-rule="evenodd" d="M79.8553 29.9308C79.8467 29.9296 79.838 29.9288 79.8292 29.9284C79.6699 29.9212 79.5349 30.0444 79.5276 30.2037C79.5204 30.363 79.6435 30.498 79.8028 30.5053L79.8028 30.5055L85.8358 31.2385C85.8556 31.2424 85.8759 31.2449 85.8967 31.2459L85.8968 31.2459L85.8968 31.2459C86.1198 31.256 86.3089 31.0835 86.319 30.8605C86.3292 30.6375 86.1566 30.4484 85.9336 30.4382C85.9335 30.4382 85.9334 30.4382 85.9333 30.4382L79.8553 29.9308Z" fill="#F7C28E"/>
<path fill-rule="evenodd" clip-rule="evenodd" d="M79.8695 31.7148L79.8655 31.7143L79.8655 31.7144C79.8655 31.7144 79.8655 31.7144 79.8654 31.7144C79.7067 31.6993 79.5657 31.8157 79.5506 31.9745C79.5355 32.1332 79.6519 32.2742 79.8107 32.2893C79.8112 32.2893 79.8118 32.2894 79.8123 32.2894L85.7997 33.3188C85.8195 33.3238 85.8398 33.3273 85.8608 33.3293C86.083 33.3505 86.2803 33.1875 86.3015 32.9652C86.3227 32.743 86.1597 32.5457 85.9375 32.5245L85.9375 32.5245L79.8834 31.7167C79.8788 31.7159 79.8741 31.7153 79.8695 31.7148Z" fill="#F7C28E"/>
<path fill-rule="evenodd" clip-rule="evenodd" d="M79.8411 33.3185C79.8335 33.3169 79.8258 33.3156 79.8181 33.3146C79.6599 33.2939 79.515 33.4053 79.4943 33.5635C79.4737 33.7216 79.5851 33.8665 79.7432 33.8872L79.7432 33.8872L85.6941 35.126C85.7129 35.1313 85.7322 35.1354 85.7521 35.138L85.7533 35.1383L85.7533 35.1382C85.7533 35.1382 85.7533 35.1382 85.7533 35.1382C85.9747 35.1671 86.1776 35.0111 86.2065 34.7897C86.2354 34.5683 86.0794 34.3654 85.858 34.3365C85.8573 34.3364 85.8566 34.3363 85.8559 34.3362L79.8411 33.3185Z" fill="#F7C28E"/>
<path d="M85.9593 36.0491H84.6738L85.5736 36.8846L86.6663 36.9489L86.8591 36.499L85.9593 36.0491Z" fill="#392620"/>
<path d="M85.6379 36.692L86.8591 36.4991V37.0133L85.6379 37.2061V36.692Z" fill="#442F1A"/>
<path d="M85.6379 37.206V36.6918L84.6738 36.0491V36.5633L85.6379 37.206Z" fill="#DBAF92"/>
<path d="M85.6451 27.551L86.3129 27.6724L86.3736 36.4134L85.6451 36.5348V27.551Z" fill="#442F1A"/>
<path d="M85.0382 27.6117L85.6452 27.551V36.5348L85.0382 36.1099V27.6117Z" fill="#DBAF92"/>
<path fill-rule="evenodd" clip-rule="evenodd" d="M86.2988 28.3853C86.2896 28.3846 86.2803 28.3842 86.271 28.3842C86.0793 28.3842 85.9238 28.5396 85.9238 28.7314C85.9238 28.9231 86.0792 29.0785 86.271 29.0785V29.0786L93.5563 29.6284C93.5805 29.6321 93.6054 29.6341 93.6307 29.6341C93.8991 29.6341 94.1167 29.4165 94.1167 29.1481C94.1167 28.8797 93.8992 28.6621 93.6308 28.662V28.662L86.2988 28.3853Z" fill="#F7C28E"/>
<path fill-rule="evenodd" clip-rule="evenodd" d="M86.3322 30.5772C86.3227 30.5759 86.313 30.5751 86.3032 30.5747C86.1117 30.5659 85.9493 30.7141 85.9406 30.9056C85.9319 31.0972 86.08 31.2595 86.2716 31.2683L86.2716 31.2684L93.526 32.1497C93.5493 32.1543 93.5732 32.1573 93.5975 32.1584L93.5984 32.1585L93.5984 32.1585C93.5985 32.1585 93.5985 32.1585 93.5985 32.1585C93.8667 32.1707 94.094 31.9632 94.1062 31.6951C94.1184 31.427 93.911 31.1997 93.6428 31.1874C93.6422 31.1874 93.6417 31.1874 93.6411 31.1874L86.3322 30.5772Z" fill="#F7C28E"/>
<path fill-rule="evenodd" clip-rule="evenodd" d="M86.376 32.7258C86.3665 32.7241 86.3568 32.7228 86.3471 32.7219C86.1562 32.7037 85.9867 32.8437 85.9686 33.0346C85.9504 33.2254 86.0903 33.3948 86.2811 33.4131L86.2811 33.4132L93.4832 34.6513C93.5062 34.6571 93.5299 34.6612 93.5542 34.6636L93.5551 34.6637L93.5551 34.6637C93.5551 34.6637 93.5552 34.6637 93.5552 34.6637C93.8224 34.6891 94.0597 34.4931 94.0851 34.2259C94.1105 33.9587 93.9145 33.7214 93.6473 33.696C93.6467 33.6959 93.6461 33.6959 93.6456 33.6958L86.376 32.7258Z" fill="#F7C28E"/>
<path fill-rule="evenodd" clip-rule="evenodd" d="M86.2003 35.3345C86.2002 35.3345 86.2002 35.3345 86.2002 35.3345C86.0101 35.3096 85.8761 35.1354 85.901 34.9452C85.9258 34.7551 86.1 34.6211 86.2902 34.646C86.2996 34.6472 86.3089 34.6488 86.318 34.6508L93.5499 35.8744C93.5505 35.8745 93.5512 35.8746 93.5519 35.8747C93.8181 35.9094 94.0057 36.1534 93.9709 36.4196C93.9361 36.6857 93.6922 36.8733 93.4261 36.8385L93.4261 36.8386L93.4249 36.8384C93.4008 36.8352 93.3773 36.8303 93.3545 36.8237L86.2002 35.3345L86.2003 35.3345Z" fill="#F7C28E"/>
<path d="M94.3374 37.5492H92.8671L93.8963 38.5049L95.1461 38.5784L95.3666 38.0638L94.3374 37.5492Z" fill="#392620"/>
<path d="M93.9697 38.2845L95.3665 38.0639V38.652L93.9697 38.8726V38.2845Z" fill="#442F1A"/>
<path d="M93.9698 38.8725V38.2844L92.8671 37.5492V38.1373L93.9698 38.8725Z" fill="#DBAF92"/>
<path d="M93.978 27.8287L94.7418 27.9675L94.8112 37.9657L93.978 38.1046V27.8287Z" fill="#442F1A"/>
<path d="M93.2837 27.8981L93.978 27.8287V38.1046L93.2837 37.6186V27.8981Z" fill="#DBAF92"/>
<g clip-path="url(#clip1_286_13363)">
<path fill-rule="evenodd" clip-rule="evenodd" d="M94.7554 29.713C94.7553 29.713 94.7553 29.713 94.7553 29.713C94.5043 29.713 94.3008 29.5095 94.3008 29.2585C94.3008 29.0075 94.5043 28.804 94.7553 28.804C94.7553 28.804 94.7553 28.804 94.7554 28.804C94.767 28.804 94.7786 28.8045 94.79 28.8053L104.391 29.1676C104.742 29.1676 105.027 29.4525 105.027 29.8039C105.027 30.1554 104.742 30.4403 104.391 30.4403C104.358 30.4403 104.326 30.4378 104.294 30.433L94.7554 29.713Z" fill="#F7C28E"/>
<path fill-rule="evenodd" clip-rule="evenodd" d="M94.7981 31.6719L94.7978 31.6719L94.7978 31.6719C94.7978 31.6719 94.7978 31.6719 94.7978 31.6719C94.547 31.6605 94.3345 31.8545 94.323 32.1052C94.3116 32.356 94.5056 32.5685 94.7564 32.58C94.7564 32.58 94.7565 32.58 94.7565 32.58L104.253 33.7337C104.284 33.74 104.316 33.7439 104.349 33.7454C104.7 33.7614 104.998 33.4898 105.014 33.1388C105.03 32.7877 104.758 32.4901 104.407 32.4741L94.8322 31.6748C94.821 31.6734 94.8096 31.6724 94.7981 31.6719Z" fill="#F7C28E"/>
<path fill-rule="evenodd" clip-rule="evenodd" d="M94.8551 34.483L94.855 34.483L94.855 34.483C94.6052 34.4592 94.3833 34.6425 94.3595 34.8924C94.3357 35.1423 94.519 35.3642 94.7689 35.388C94.7689 35.388 94.769 35.388 94.769 35.388L104.196 37.0088C104.227 37.0166 104.259 37.0221 104.292 37.0252C104.642 37.0585 104.953 36.8019 104.986 36.4521C105.019 36.1023 104.763 35.7917 104.413 35.7583L104.413 35.7583L94.8893 34.4876C94.8781 34.4857 94.8668 34.4842 94.8553 34.4831C94.8552 34.483 94.8551 34.483 94.8551 34.483Z" fill="#F7C28E"/>
<path fill-rule="evenodd" clip-rule="evenodd" d="M94.7806 37.002L94.7806 37.002L94.7806 37.002C94.7805 37.002 94.7805 37.002 94.7805 37.002C94.5316 36.9695 94.3035 37.1449 94.271 37.3938C94.2384 37.6427 94.4139 37.8708 94.6628 37.9034C94.6628 37.9034 94.6628 37.9034 94.6628 37.9034L104.028 39.8528C104.059 39.8617 104.09 39.8683 104.123 39.8726L104.123 39.8726L104.288 38.6107M104.288 38.6107L94.8147 37.0078C94.8035 37.0054 94.7922 37.0035 94.7806 37.002" fill="#F7C28E"/>
</g>
<ellipse cx="83.0771" cy="43.0167" rx="16.9229" ry="5.76005" fill="#9B8670"/>
<defs>
<linearGradient id="paint0_linear_286_13363" x1="26.1017" y1="8.23306" x2="65.3057" y2="35.6045" gradientUnits="userSpaceOnUse">
<stop stop-color="#92BFE6"/>
<stop offset="1" stop-color="#AEE2FA"/>
</linearGradient>
<linearGradient id="paint1_linear_286_13363" x1="37.443" y1="25.4686" x2="37.443" y2="43.3292" gradientUnits="userSpaceOnUse">
<stop stop-color="#646661"/>
<stop offset="1" stop-color="#26211D"/>
</linearGradient>
<linearGradient id="paint2_linear_286_13363" x1="41.4617" y1="27.9691" x2="51.8209" y2="37.8993" gradientUnits="userSpaceOnUse">
<stop stop-color="#26211D"/>
<stop offset="1" stop-color="#646661"/>
</linearGradient>
<linearGradient id="paint3_linear_286_13363" x1="40.5587" y1="33.6721" x2="57.7089" y2="46.6175" gradientUnits="userSpaceOnUse">
<stop stop-color="#AF885F"/>
<stop offset="0.369321" stop-color="#D4A271"/>
<stop offset="1" stop-color="#7B7440"/>
</linearGradient>
<linearGradient id="paint4_linear_286_13363" x1="70.53" y1="18.6816" x2="70.53" y2="21.7179" gradientUnits="userSpaceOnUse">
<stop stop-color="#646661"/>
<stop offset="1" stop-color="#26211D"/>
</linearGradient>
<linearGradient id="paint5_linear_286_13363" x1="71.7356" y1="21.45" x2="71.7356" y2="26.4509" gradientUnits="userSpaceOnUse">
<stop stop-color="#646661"/>
<stop offset="1" stop-color="#26211D"/>
</linearGradient>
<linearGradient id="paint6_linear_286_13363" x1="69.8602" y1="25.022" x2="69.8602" y2="30.0229" gradientUnits="userSpaceOnUse">
<stop stop-color="#646661"/>
<stop offset="1" stop-color="#26211D"/>
</linearGradient>
<linearGradient id="paint7_linear_286_13363" x1="61.1978" y1="25.8257" x2="61.1978" y2="30.8267" gradientUnits="userSpaceOnUse">
<stop stop-color="#646661"/>
<stop offset="1" stop-color="#26211D"/>
</linearGradient>
<linearGradient id="paint8_linear_286_13363" x1="64.7699" y1="26.183" x2="64.7699" y2="31.184" gradientUnits="userSpaceOnUse">
<stop stop-color="#646661"/>
<stop offset="1" stop-color="#26211D"/>
</linearGradient>
<linearGradient id="paint9_linear_286_13363" x1="73.9176" y1="24.4829" x2="75.3284" y2="26.3458" gradientUnits="userSpaceOnUse">
<stop stop-color="#AF885F"/>
<stop offset="1" stop-color="#D4A271"/>
</linearGradient>
<linearGradient id="paint10_linear_286_13363" x1="74.2806" y1="15.1094" x2="74.2806" y2="20.9935" gradientUnits="userSpaceOnUse">
<stop stop-color="#7C7353"/>
<stop offset="1" stop-color="#9C7C53"/>
</linearGradient>
<linearGradient id="paint11_linear_286_13363" x1="78.0313" y1="12.966" x2="84.7291" y2="25.2005" gradientUnits="userSpaceOnUse">
<stop stop-color="#555027"/>
<stop offset="1" stop-color="#B08151"/>
</linearGradient>
<linearGradient id="paint12_linear_286_13363" x1="71.6325" y1="21.3142" x2="71.9403" y2="22.719" gradientUnits="userSpaceOnUse">
<stop stop-color="#AF885F"/>
<stop offset="1" stop-color="#D4A271"/>
</linearGradient>
<linearGradient id="paint13_linear_286_13363" x1="87.081" y1="3.5" x2="87.081" y2="36.8101" gradientUnits="userSpaceOnUse">
<stop stop-color="#A37B4A"/>
<stop offset="0.354167" stop-color="#C2A179"/>
<stop offset="0.630208" stop-color="#E0BE8E"/>
<stop offset="0.739583" stop-color="#AF9069"/>
<stop offset="1" stop-color="#6C5237"/>
</linearGradient>
<clipPath id="clip0_286_13363">
<rect width="5.13797" height="6.24888" fill="white" transform="translate(74.3981 27.6898)"/>
</clipPath>
<clipPath id="clip1_286_13363">
<rect width="5.89401" height="9.91265" fill="white" transform="translate(94.1058 28.7726)"/>
</clipPath>
</defs>
</svg>
