<svg width="104" height="53" viewBox="0 0 104 53" fill="none" xmlns="http://www.w3.org/2000/svg">
<path d="M75.263 48.7177L72.5787 47.759L73.3457 46.9921L75.0712 46.8004L75.263 48.7177Z" fill="#997B50"/>
<path d="M83.3158 33.3791L83.5075 32.804L72.9623 33.7626L74.3044 36.0634L83.6992 35.6799L85.4248 33.5709L83.3158 33.3791Z" fill="#FFEBCE"/>
<path d="M77.7975 35.9161C77.2862 34.1905 76.6855 30.3942 78.3727 29.0137C80.0599 27.6333 80.7374 32.7844 80.8652 35.5326" stroke="#997B50" stroke-width="0.383463"/>
<path d="M75.263 48.7177L74.4961 47.3756L74.8796 34.9131L75.8382 35.68L76.9886 45.2666L75.263 48.7177Z" fill="#FFC571"/>
<path d="M75.4547 34.1461L72.9622 33.7626L72.5787 47.759L74.4961 47.3755L74.8795 34.913L75.4547 34.1461Z" fill="#564834"/>
<path d="M85.4248 33.5709L74.8795 34.913L75.263 48.7177L85.9999 47.3756L85.4248 33.5709Z" fill="#EAA94A"/>
<path d="M79.3313 35.9161C78.82 34.1905 78.2193 30.3942 79.9065 29.0137C81.5937 27.6333 82.2712 32.7844 82.399 35.5326" stroke="#564834" stroke-width="0.383463" stroke-linecap="round"/>
<path d="M23.7759 48.299C23.0217 47.0419 23.0426 43.7943 23.1474 42.3277L37.2899 42.1705C37.2375 43.5848 37.1327 46.6961 37.1327 47.8275C37.1327 48.959 36.1899 49.4513 35.7185 49.5561H32.89C31.5071 49.5561 31.2662 48.6132 31.3186 48.1418V45.4705C31.2138 45.0514 30.8157 44.2133 30.0615 44.2133C29.3072 44.2133 28.9091 45.0514 28.8044 45.4705V48.1418C28.8044 49.0218 28.1758 49.4513 27.8615 49.5561H24.8759C24.2473 49.3989 24.7188 49.8704 23.7759 48.299Z" fill="#EAA94A"/>
<path d="M19.5332 36.1992C18.6533 33.9364 22.2046 30.8564 24.0903 29.5993H36.9758C41.3757 31.7364 41.5328 35.8325 41.0614 37.6134C40.4852 38.3468 39.3014 40.002 39.1757 40.7562C39.05 41.5105 38.2853 41.8038 37.9186 41.8562L37.6043 42.9562C33.2044 43.0086 24.2161 43.0819 23.4618 42.9562C22.7075 42.8305 22.0999 42.1705 21.8904 41.8562V39.8134C19.3762 39.8134 20.6332 39.0277 19.5332 36.1992Z" fill="#2D2931"/>
<ellipse cx="37.4768" cy="37.9437" rx="1.88567" ry="2.35709" transform="rotate(-32.5772 37.4768 37.9437)" fill="#EAA94A"/>
<ellipse cx="1.88567" cy="2.35709" rx="1.88567" ry="2.35709" transform="matrix(-0.842667 -0.538436 -0.538436 0.842667 25.8781 36.9727)" fill="#EAA94A"/>
<path d="M44.3613 19.2282C44.3613 26.5182 38.3109 31.9565 30.8474 31.9565C23.3838 31.9565 17.3334 26.5182 17.3334 19.2282C17.3334 11.9382 23.3838 6.0285 30.8474 6.0285C38.3109 6.0285 44.3613 11.9382 44.3613 19.2282Z" fill="#423E42"/>
<path d="M42.1612 20.1711C42.1612 26.2496 37.7414 31.1708 30.8472 31.1708C23.953 31.1708 19.5332 26.2496 19.5332 20.1711C19.5332 14.1041 24.5904 9.1713 30.8472 9.1713C37.1039 9.1713 42.1612 14.1041 42.1612 20.1711Z" fill="#EAA94A" stroke="#040407" stroke-width="0.628558"/>
<rect x="22.3618" y="15.7711" width="5.34274" height="1.09998" rx="0.549988" fill="#040407"/>
<rect x="33.3616" y="15.771" width="5.34274" height="1.09998" rx="0.549988" fill="#040407"/>
<circle cx="25.3473" cy="18.7567" r="0.785697" fill="#040407"/>
<circle cx="35.7186" cy="18.7567" r="0.785697" fill="#030603"/>
<circle cx="28.8045" cy="22.2138" r="2.04281" fill="white"/>
<circle cx="31.9472" cy="22.2138" r="2.04281" fill="white"/>
<circle cx="30.376" cy="20.6425" r="1.09998" fill="#040407"/>
<g filter="url(#filter0_d_293_16867)">
<path d="M22.6821 6.66882C20.4193 6.54311 19.5393 7.45452 19.3822 7.92594C19.2774 8.24022 19.0365 9.21448 18.9107 10.5973C18.785 11.9801 20.6393 12.4306 21.5821 12.483C25.3535 12.4306 33.4304 12.3573 35.5675 12.483C38.2389 12.6401 40.9103 12.1687 42.1674 11.2259C43.4245 10.283 42.6388 9.18305 42.6388 7.92594C42.6388 6.92025 41.0674 6.66882 40.2817 6.66882C35.358 6.7212 24.9449 6.79454 22.6821 6.66882Z" fill="#2D2931"/>
</g>
<path d="M27.3963 2.22802C25.0078 3.108 23.1536 5.73747 22.525 6.9422C23.7821 8.32503 34.8867 7.51838 40.2818 6.9422L36.9818 3.17086C36.1961 1.59946 30.382 1.12805 27.3963 2.22802Z" fill="#423E42"/>
<g filter="url(#filter1_d_293_16867)">
<path fill-rule="evenodd" clip-rule="evenodd" d="M35.1635 4.66633C35.631 4.1643 36.4816 3.82852 37.4534 3.82852C38.4917 3.82852 39.3916 4.21179 39.8337 4.77161C40.5172 4.78401 41.0675 5.342 41.0675 6.02852C41.0675 6.7228 40.5047 7.28563 39.8104 7.28563C39.7972 7.28563 39.784 7.28542 39.7709 7.28502C39.6315 7.82749 39.1392 8.22839 38.5532 8.22839C38.1297 8.22839 37.7552 8.01901 37.5274 7.69811C37.0339 8.20396 36.1298 8.5428 35.0961 8.5428C33.534 8.5428 32.2676 7.76891 32.2676 6.81426C32.2676 6.7366 32.276 6.66014 32.2922 6.58519C32.0793 6.29786 31.9534 5.94218 31.9534 5.55709C31.9534 4.60244 32.7273 3.82855 33.6819 3.82855C34.3107 3.82855 34.8611 4.16431 35.1635 4.66633Z" fill="#EFDF65"/>
</g>
<ellipse cx="37.9247" cy="6.02856" rx="1.88567" ry="0.942836" fill="#E2B83E"/>
<path d="M28.9103 31.7994C28.5365 33.9372 28.2748 38.6901 30.2189 40.5992" stroke="white" stroke-width="0.785697" stroke-linecap="round"/>
<path d="M32.1558 31.7994C31.7819 33.9372 31.6329 37.2993 32.4187 40.4421" stroke="white" stroke-width="0.785697" stroke-linecap="round"/>
<rect x="27.8268" y="37.0154" width="1.88567" height="1.57139" rx="0.785697" transform="rotate(8.22349 27.8268 37.0154)" fill="white"/>
<rect x="30.7578" y="36.8279" width="1.88567" height="1.57139" rx="0.785697" transform="rotate(8.22349 30.7578 36.8279)" fill="white"/>
<path d="M65.5187 37.0697C65.5187 42.19 64.8902 46.3409 58.2903 46.3409C52.0047 46.3409 51.0619 42.19 51.0619 37.0697C51.0619 31.9493 54.2982 27.7984 58.2903 27.7984C62.2824 27.7984 65.5187 31.9493 65.5187 37.0697Z" fill="url(#paint0_linear_293_16867)"/>
<path fill-rule="evenodd" clip-rule="evenodd" d="M51.8476 41.6266C50.1987 41.6266 48.8619 42.9633 48.8619 44.6122C48.8619 45.855 49.6212 46.9204 50.7012 47.3699C52.1148 48.2501 55.0525 48.8551 58.4473 48.8551C61.5976 48.8551 64.3543 48.3341 65.8646 47.5557C67.274 47.3166 68.3472 46.0897 68.3472 44.6122C68.3472 42.9633 67.0105 41.6266 65.3616 41.6266H51.8476Z" fill="url(#paint1_linear_293_16867)"/>
<path d="M68.3471 22.4558C68.3471 27.6629 65.7567 31.8841 58.2902 31.8841C50.8237 31.8841 48.2333 27.6629 48.2333 22.4558C48.2333 17.2486 52.7359 13.0274 58.2902 13.0274C63.8445 13.0274 68.3471 17.2486 68.3471 22.4558Z" fill="url(#paint2_linear_293_16867)"/>
<path d="M54.9952 7.25427C52.4091 8.63596 51.6584 11.074 51.6064 12.1203L51.5048 14.1606L65.0021 14.8323L65.284 12.329C65.2834 9.81167 63.2428 8.03187 62.2225 7.45665C60.891 6.81348 57.5813 5.87258 54.9952 7.25427Z" fill="url(#paint3_linear_293_16867)"/>
<rect x="49.4102" y="11.9862" width="17.9139" height="4.71418" rx="1.57139" transform="rotate(1.00461 49.4102 11.9862)" fill="url(#paint4_linear_293_16867)"/>
<ellipse cx="51.5333" cy="35.0268" rx="2.67137" ry="3.14279" fill="url(#paint5_linear_293_16867)"/>
<ellipse cx="65.083" cy="34.7229" rx="2.67137" ry="3.14279" transform="rotate(-33.6063 65.083 34.7229)" fill="url(#paint6_linear_293_16867)"/>
<path fill-rule="evenodd" clip-rule="evenodd" d="M60.1685 37.8481C59.6958 38.5997 58.7506 39.1125 57.6616 39.1125C56.0995 39.1125 54.8331 38.0571 54.8331 36.7554C54.8331 35.9307 55.3413 35.2049 56.111 34.7837C55.7046 34.2468 55.4617 33.5667 55.4617 32.8268C55.4617 31.0911 56.7984 29.684 58.4473 29.684C59.6417 29.684 60.6722 30.4222 61.1497 31.4888C61.291 31.0154 61.5268 30.5956 61.9044 30.4697C62.0435 30.4234 62.1757 30.3736 62.3037 30.3254C63.0429 30.0472 63.6381 29.8231 64.5758 30.6269C65.5844 31.4914 65.9324 34.0736 62.8333 34.0119C63.3695 34.4997 63.9997 35.0794 64.2614 35.3411C64.7328 35.8125 65.0471 36.2839 64.89 36.9125C64.7328 37.5411 63.79 38.9553 63.0043 39.4267C62.3757 39.8039 61.59 39.2696 61.2758 38.9553L60.1685 37.8481Z" fill="#EFDF65"/>
<ellipse cx="59.7043" cy="34.3983" rx="1.09998" ry="0.942836" fill="#E2B83E"/>
<rect x="51.3761" y="19.3129" width="4.52078" height="0.930749" rx="0.465374" fill="#040407"/>
<rect x="60.6835" y="19.3129" width="4.52078" height="0.930749" rx="0.465374" fill="#040407"/>
<circle cx="53.9022" cy="21.8392" r="0.66482" fill="#040407"/>
<circle cx="62.6781" cy="21.8392" r="0.66482" fill="#030603"/>
<circle cx="56.8277" cy="24.7644" r="1.72853" fill="white"/>
<circle cx="59.487" cy="24.7644" r="1.72853" fill="white"/>
<circle cx="58.1573" cy="23.4348" r="0.930749" fill="#040407"/>
<defs>
<filter id="filter0_d_293_16867" x="17.9618" y="6.34276" width="25.8624" height="7.74139" filterUnits="userSpaceOnUse" color-interpolation-filters="sRGB">
<feFlood flood-opacity="0" result="BackgroundImageFix"/>
<feColorMatrix in="SourceAlpha" type="matrix" values="0 0 0 0 0 0 0 0 0 0 0 0 0 0 0 0 0 0 127 0" result="hardAlpha"/>
<feOffset dy="0.628558"/>
<feGaussianBlur stdDeviation="0.471418"/>
<feComposite in2="hardAlpha" operator="out"/>
<feColorMatrix type="matrix" values="0 0 0 0 0 0 0 0 0 0 0 0 0 0 0 0 0 0 0.6 0"/>
<feBlend mode="normal" in2="BackgroundImageFix" result="effect1_dropShadow_293_16867"/>
<feBlend mode="normal" in="SourceGraphic" in2="effect1_dropShadow_293_16867" result="shape"/>
</filter>
<filter id="filter1_d_293_16867" x="31.0105" y="3.51424" width="10.9998" height="6.59994" filterUnits="userSpaceOnUse" color-interpolation-filters="sRGB">
<feFlood flood-opacity="0" result="BackgroundImageFix"/>
<feColorMatrix in="SourceAlpha" type="matrix" values="0 0 0 0 0 0 0 0 0 0 0 0 0 0 0 0 0 0 127 0" result="hardAlpha"/>
<feOffset dy="0.628558"/>
<feGaussianBlur stdDeviation="0.471418"/>
<feComposite in2="hardAlpha" operator="out"/>
<feColorMatrix type="matrix" values="0 0 0 0 0 0 0 0 0 0 0 0 0 0 0 0 0 0 0.6 0"/>
<feBlend mode="normal" in2="BackgroundImageFix" result="effect1_dropShadow_293_16867"/>
<feBlend mode="normal" in="SourceGraphic" in2="effect1_dropShadow_293_16867" result="shape"/>
</filter>
<linearGradient id="paint0_linear_293_16867" x1="55.6189" y1="43.6695" x2="50.0969" y2="32.7255" gradientUnits="userSpaceOnUse">
<stop stop-color="#909097"/>
<stop offset="1" stop-color="#413D48"/>
</linearGradient>
<linearGradient id="paint1_linear_293_16867" x1="50.7476" y1="41.6266" x2="67.5615" y2="46.8122" gradientUnits="userSpaceOnUse">
<stop stop-color="#C9C9C9"/>
<stop offset="1" stop-color="#413D48"/>
</linearGradient>
<linearGradient id="paint2_linear_293_16867" x1="55.6188" y1="31.8841" x2="43.8976" y2="-0.207652" gradientUnits="userSpaceOnUse">
<stop stop-color="#B0B0B0"/>
<stop offset="1" stop-color="#413D48"/>
</linearGradient>
<linearGradient id="paint3_linear_293_16867" x1="53.2213" y1="6.28827" x2="65.5215" y2="9.35112" gradientUnits="userSpaceOnUse">
<stop stop-color="#909097"/>
<stop offset="1" stop-color="#413D48"/>
</linearGradient>
<linearGradient id="paint4_linear_293_16867" x1="51.1438" y1="11.9862" x2="65.381" y2="18.176" gradientUnits="userSpaceOnUse">
<stop stop-color="#C9C9C9"/>
<stop offset="1" stop-color="#413D48"/>
</linearGradient>
<linearGradient id="paint5_linear_293_16867" x1="53.1043" y1="38.5152" x2="51.9337" y2="32.8403" gradientUnits="userSpaceOnUse">
<stop stop-color="#909097"/>
<stop offset="1" stop-color="#413D48"/>
</linearGradient>
<linearGradient id="paint6_linear_293_16867" x1="66.654" y1="38.2114" x2="65.4834" y2="32.5364" gradientUnits="userSpaceOnUse">
<stop stop-color="#909097"/>
<stop offset="1" stop-color="#413D48"/>
</linearGradient>
</defs>
</svg>
