<svg width="46" height="46" viewBox="0 0 46 46" fill="none" xmlns="http://www.w3.org/2000/svg">
<circle cx="23" cy="23" r="23" fill="#F7CD46"/>
<path fill-rule="evenodd" clip-rule="evenodd" d="M13.25 12.75C13.25 12.3358 13.5858 12 14 12H21C21.3782 12 21.6973 12.2817 21.7442 12.657L22.5371 19H29.5C29.9142 19 30.25 19.3358 30.25 19.75C30.25 20.1642 29.9142 20.5 29.5 20.5H22.7246L23.1621 24H31C31.3442 24 31.6441 24.2342 31.7276 24.5681L33.0542 29.8743L34.8529 29.5146C35.2591 29.4333 35.6542 29.6967 35.7354 30.1029C35.8167 30.5091 35.5533 30.9042 35.1471 30.9854L32.6471 31.4854C32.2545 31.5639 31.8695 31.3203 31.7724 30.9319L30.4144 25.5H22.5C22.1218 25.5 21.8027 25.2183 21.7558 24.843L20.3379 13.5H14C13.5858 13.5 13.25 13.1642 13.25 12.75ZM27.8272 26.8929C27.8272 28.1166 27.4772 29.3149 26.8185 30.3472L26.8162 30.3508C26.1566 31.3829 25.2155 32.2059 24.1035 32.7231L24.1001 32.7246C22.9866 33.2417 21.7483 33.4309 20.5306 33.2699L20.5294 33.2698C19.3123 33.1086 18.1665 32.6041 17.2269 31.8158L17.2232 31.8127C16.2851 31.0244 15.5918 29.9856 15.2247 28.8181L15.2239 28.8154C14.8573 27.6479 14.8321 26.4004 15.1512 25.2191L15.1519 25.2168C15.4715 24.0354 16.1222 22.9696 17.0277 22.1442L17.0312 22.141C17.9358 21.3176 19.0567 20.7682 20.2626 20.557L20.2719 20.5554L20.2735 20.5551L19.943 18.6592L19.929 18.6617C18.4859 18.9145 17.1366 19.5399 16.0143 20.4729C15.9194 20.5519 15.8261 20.633 15.7345 20.7163L15.7309 20.7195C14.5528 21.7918 13.706 23.1773 13.29 24.713L13.2894 24.7154C12.8736 26.2521 12.9065 27.8753 13.384 29.394L13.3848 29.3966C13.8626 30.9143 14.7647 32.2644 15.9851 33.2884L15.9888 33.2914C17.2092 34.3142 18.6969 34.9686 20.2771 35.1775L20.2784 35.1777C21.8586 35.3864 23.4657 35.1411 24.911 34.4707L24.9144 34.4691C26.3596 33.7979 27.5829 32.7294 28.4405 31.389L28.4429 31.3853C28.5082 31.283 28.5713 31.1794 28.632 31.0747C29.3674 29.8053 29.7563 28.3632 29.7563 26.8929H27.8272Z" fill="white"/>
<path d="M18 12V13.5H14C13.5858 13.5 13.25 13.1642 13.25 12.75C13.25 12.3358 13.5858 12 14 12H18Z" fill="white" stroke="white" stroke-width="0.8"/>
</svg>
