<svg width="20" height="20" viewBox="0 0 20 20" fill="none" xmlns="http://www.w3.org/2000/svg">
<path d="M15.8461 15.4039C15.9047 15.4625 15.9377 15.5421 15.9377 15.625C15.9377 15.7079 15.9047 15.7874 15.8461 15.8461C15.7875 15.9047 15.7079 15.9377 15.625 15.9377C15.5421 15.9377 15.4626 15.9047 15.4039 15.8461L10 10.4422L4.5961 15.8461C4.53746 15.9047 4.45793 15.9377 4.37501 15.9377C4.29208 15.9377 4.21255 15.9047 4.15391 15.8461C4.09527 15.7874 4.06233 15.7079 4.06233 15.625C4.06233 15.5421 4.09527 15.4625 4.15391 15.4039L9.55782 9.99999L4.15391 4.59608C4.09527 4.53745 4.06233 4.45792 4.06233 4.37499C4.06233 4.29206 4.09527 4.21253 4.15391 4.1539C4.21255 4.09526 4.29208 4.06232 4.37501 4.06232C4.45793 4.06232 4.53746 4.09526 4.5961 4.1539L10 9.5578L15.4039 4.1539C15.4329 4.12486 15.4674 4.10183 15.5054 4.08612C15.5433 4.0704 15.5839 4.06232 15.625 4.06232C15.6661 4.06232 15.7067 4.0704 15.7447 4.08612C15.7826 4.10183 15.8171 4.12486 15.8461 4.1539C15.8751 4.18293 15.8982 4.2174 15.9139 4.25534C15.9296 4.29327 15.9377 4.33393 15.9377 4.37499C15.9377 4.41605 15.9296 4.45671 15.9139 4.49465C15.8982 4.53258 15.8751 4.56705 15.8461 4.59608L10.4422 9.99999L15.8461 15.4039Z" fill="black"/>
</svg>
