<svg width="57" height="57" viewBox="0 0 57 57" fill="none" xmlns="http://www.w3.org/2000/svg">
<path d="M3.5625 28.5C3.5625 33.4322 5.02506 38.2536 7.76523 42.3545C10.5054 46.4555 14.4001 49.6518 18.9568 51.5392C23.5136 53.4267 28.5277 53.9206 33.3651 52.9583C38.2025 51.9961 42.6459 49.621 46.1335 46.1335C49.621 42.6459 51.9961 38.2025 52.9583 33.3651C53.9206 28.5277 53.4267 23.5136 51.5392 18.9568C49.6518 14.4001 46.4555 10.5054 42.3545 7.76523C38.2536 5.02506 33.4322 3.5625 28.5 3.5625C21.8862 3.5625 15.5432 6.18984 10.8665 10.8665C6.18984 15.5432 3.5625 21.8862 3.5625 28.5ZM44.7984 42.3047L14.6953 12.2016C18.7933 8.79046 24.0182 7.03412 29.3446 7.27723C34.671 7.52034 39.7142 9.74536 43.4844 13.5156C47.2546 17.2858 49.4797 22.329 49.7228 27.6554C49.9659 32.9818 48.2095 38.2067 44.7984 42.3047ZM14.6775 44.8162C10.3639 41.1531 7.67897 35.9289 7.2115 30.2891C6.74402 24.6493 8.53214 19.0543 12.1838 14.7309L42.2691 44.8162C38.4113 48.076 33.5239 49.8644 28.4733 49.8644C23.4227 49.8644 18.5353 48.076 14.6775 44.8162Z" fill="#19191B"/>
</svg>
