<svg width="58" height="53" viewBox="0 0 58 53" fill="none" xmlns="http://www.w3.org/2000/svg">
<path fill-rule="evenodd" clip-rule="evenodd" d="M20.1476 5.54301L23.5347 2.15589C23.7426 1.94804 24.0795 1.94804 24.2874 2.15589L27.6745 5.54301C27.8824 5.75086 27.8824 6.08785 27.6745 6.2957C27.4667 6.50355 27.1297 6.50355 26.9218 6.2957L24.4433 3.81716V14.2247C24.4433 14.5186 24.205 14.7569 23.9111 14.7569C23.6171 14.7569 23.3788 14.5186 23.3788 14.2247L23.3788 3.81716L20.9003 6.2957C20.6924 6.50355 20.3554 6.50355 20.1476 6.2957C19.9397 6.08785 19.9397 5.75086 20.1476 5.54301ZM42.7054 19.3307H16.1308C14.762 19.3307 13.6523 20.4403 13.6523 21.8091V46.8692C13.6523 48.238 14.762 49.3476 16.1308 49.3476H20.4715V49.1447V41.836H19.1963H18.0585V40.6983V32.0454C18.0585 30.7886 19.0773 29.7698 20.334 29.7698H25.4359C26.6927 29.7698 27.7115 30.7886 27.7115 32.0454V40.6983V41.836H26.5737H25.298V49.1447V49.3476H33.7444V49.1447V41.836H32.469H31.3312V40.6983V32.0454C31.3312 30.7886 32.35 29.7698 33.6068 29.7698H38.7086C39.9654 29.7698 40.9842 30.7886 40.9842 32.0454V40.6983V41.836H39.8464H38.5709V49.1447V49.3476H42.7054C44.0742 49.3476 45.1839 48.238 45.1839 46.8692V21.8091C45.1839 20.4403 44.0742 19.3307 42.7054 19.3307ZM16.1308 17.6783C13.8494 17.6783 12 19.5278 12 21.8091V46.8692C12 49.1505 13.8494 50.9999 16.1308 50.9999H42.7054C44.9868 50.9999 46.8362 49.1505 46.8362 46.8692V21.8091C46.8362 19.5278 44.9868 17.6783 42.7054 17.6783H16.1308ZM35.3016 14.601L38.6888 11.2139C38.8966 11.006 38.8966 10.669 38.6888 10.4612C38.4809 10.2533 38.1439 10.2533 37.9361 10.4612L35.4575 12.9397L35.4575 2.53224C35.4575 2.2383 35.2192 2.00001 34.9253 2.00001C34.6313 2.00001 34.3931 2.2383 34.3931 2.53224V12.9397L31.9145 10.4612C31.7067 10.2533 31.3697 10.2533 31.1618 10.4612C30.954 10.669 30.954 11.006 31.1618 11.2139L34.5489 14.601C34.7568 14.8089 35.0938 14.8089 35.3016 14.601ZM24.1603 26.1501C24.1603 26.8545 23.5893 27.4255 22.8849 27.4255C22.1805 27.4255 21.6094 26.8545 21.6094 26.1501C21.6094 25.4456 22.1805 24.8746 22.8849 24.8746C23.5893 24.8746 24.1603 25.4456 24.1603 26.1501ZM25.2981 26.1501C25.2981 27.4829 24.2177 28.5633 22.8849 28.5633C21.5521 28.5633 20.4716 27.4829 20.4716 26.1501C20.4716 24.8173 21.5521 23.7368 22.8849 23.7368C24.2177 23.7368 25.2981 24.8173 25.2981 26.1501ZM20.334 30.9076H25.4359C26.0643 30.9076 26.5737 31.417 26.5737 32.0454V40.6983H25.298V40.6295H24.1602H24.0914V41.836H24.1602V49.1447H21.6093V41.836H21.6781V40.6295H21.6093H20.4715V40.6983H19.1963V32.0454C19.1963 31.417 19.7057 30.9076 20.334 30.9076ZM36.1576 27.4255C36.862 27.4255 37.4331 26.8545 37.4331 26.1501C37.4331 25.4456 36.862 24.8746 36.1576 24.8746C35.4532 24.8746 34.8821 25.4456 34.8821 26.1501C34.8821 26.8545 35.4532 27.4255 36.1576 27.4255ZM36.1576 28.5633C37.4904 28.5633 38.5708 27.4829 38.5708 26.1501C38.5708 24.8173 37.4904 23.7368 36.1576 23.7368C34.8248 23.7368 33.7444 24.8173 33.7444 26.1501C33.7444 27.4829 34.8248 28.5633 36.1576 28.5633ZM38.7086 30.9076H33.6068C32.9784 30.9076 32.469 31.417 32.469 32.0454V40.6983H33.7444V40.6295H34.8821H34.9509V41.836H34.8821V49.1447H37.4331V41.836H37.3642V40.6295H37.4331H38.5709V40.6983H39.8464V32.0454C39.8464 31.417 39.337 30.9076 38.7086 30.9076Z" fill="#5A2E82"/>
</svg>
