<svg width="46" height="46" viewBox="0 0 46 46" fill="none" xmlns="http://www.w3.org/2000/svg">
<circle cx="23" cy="23" r="23" fill="#26498F"/>
<path fill-rule="evenodd" clip-rule="evenodd" d="M12.9583 24H9V9H15.4167C18.7917 9 21 11.1029 21 14.2624C21 17.4738 18.7292 19.4938 15.2917 19.4834H12.9583V24ZM12.9583 12.1492V16.4171H14.5C15.9896 16.4068 16.8646 15.578 16.8542 14.2624C16.8646 12.9572 15.9896 12.1595 14.5 12.1492H12.9583ZM25.8346 19.375C26.7689 19.375 27.5264 18.6195 27.5264 17.6875C27.5264 16.7555 26.7689 16 25.8346 16C24.9003 16 24.1429 16.7555 24.1429 17.6875C24.1429 18.6195 24.9003 19.375 25.8346 19.375ZM19.3927 24.283C20.4204 23.3486 21.6934 22.7251 23.0629 22.4852L23.0752 22.4831L23.3643 24.1417L23.3643 24.142L23.3629 24.1422L23.3549 24.1436C22.2996 24.3284 21.3189 24.8092 20.5273 25.5296L20.5242 25.5325C19.7319 26.2547 19.1625 27.1873 18.8829 28.2209L18.8823 28.223C18.6031 29.2566 18.6252 30.3482 18.9459 31.3698L18.9466 31.3721C19.2679 32.3937 19.8745 33.3026 20.6953 33.9924L20.6985 33.9951C21.5207 34.6849 22.5232 35.1263 23.5882 35.2673L23.5893 35.2675C24.6547 35.4083 25.7383 35.2428 26.7126 34.7903L26.7155 34.789C27.6886 34.3364 28.512 33.6163 29.0891 32.7133L29.0912 32.71C29.6672 31.8074 29.9733 30.7598 29.9738 29.6898L29.9738 29.6875H31.6618C31.6618 31.0802 31.263 32.444 30.5125 33.6184L30.5104 33.6216C30.4568 33.7054 30.4016 33.788 30.3447 33.8693C29.606 34.9263 28.5993 35.7714 27.4251 36.3167L27.4221 36.3181C26.1575 36.9048 24.7513 37.1194 23.3686 36.9368L23.3675 36.9366C21.9848 36.7538 20.683 36.1812 19.6152 35.2863L19.612 35.2836C18.5441 34.3876 17.7548 33.2063 17.3367 31.8783L17.336 31.876C16.9181 30.5471 16.8894 29.1268 17.2532 27.7822L17.2538 27.7802C17.5925 26.5296 18.2577 25.3929 19.1792 24.485C19.2479 24.4173 19.318 24.3509 19.3895 24.2859L19.3927 24.283ZM24.5189 21.2528C24.5189 20.6299 25.0239 20.125 25.6468 20.125C26.2696 20.125 26.7746 20.6299 26.7746 21.2528V26.125H32.4165C32.7502 26.125 33.05 26.2703 33.256 26.5011C33.2927 26.5343 33.3276 26.5702 33.3605 26.6089L37.7326 31.7597C38.1353 32.234 38.0763 32.9441 37.601 33.3456C37.1256 33.747 36.4138 33.688 36.0111 33.2136L31.904 28.375H25.6534L25.6468 28.375L25.638 28.375C25.0194 28.3718 24.5188 27.8694 24.5188 27.25L24.5189 27.2368V21.2528Z" fill="white"/>
</svg>
