<svg width="72" height="57" viewBox="0 0 72 57" fill="none" xmlns="http://www.w3.org/2000/svg">
<path d="M50.5833 43.9166V49.0833H19.5833V43.9166C19.5833 43.9166 19.5833 33.5833 35.0833 33.5833C50.5833 33.5833 50.5833 43.9166 50.5833 43.9166ZM42.8333 20.6666C42.8333 19.1338 42.3788 17.6354 41.5272 16.361C40.6756 15.0865 39.4653 14.0931 38.0491 13.5066C36.633 12.92 35.0747 12.7665 33.5714 13.0655C32.068 13.3646 30.6871 14.1027 29.6033 15.1866C28.5194 16.2704 27.7813 17.6513 27.4822 19.1547C27.1832 20.658 27.3367 22.2163 27.9233 23.6324C28.5098 25.0486 29.5032 26.2589 30.7777 27.1105C32.0521 27.9621 33.5505 28.4166 35.0833 28.4166C37.1388 28.4166 39.11 27.6001 40.5634 26.1467C42.0168 24.6933 42.8333 22.7221 42.8333 20.6666ZM51.1 33.7383C52.5121 35.0411 53.6506 36.6121 54.449 38.3597C55.2474 40.1072 55.6896 41.9963 55.75 43.9166V49.0833H63.5V43.9166C63.5 43.9166 63.5 35.0041 51.1 33.7383ZM48 12.9166C47.2195 12.9171 46.4438 13.0391 45.7008 13.2783C47.2122 15.4456 48.0226 18.0244 48.0226 20.6666C48.0226 23.3089 47.2122 25.8876 45.7008 28.055C46.4438 28.2941 47.2195 28.4162 48 28.4166C50.0554 28.4166 52.0267 27.6001 53.4801 26.1467C54.9335 24.6933 55.75 22.7221 55.75 20.6666C55.75 18.6112 54.9335 16.64 53.4801 15.1866C52.0267 13.7331 50.0554 12.9166 48 12.9166ZM22.1667 25.8333H14.4167V18.0833H9.25V25.8333H1.5V31H9.25V38.75H14.4167V31H22.1667V25.8333Z" fill="#19191B"/>
</svg>
