<svg width="46" height="46" viewBox="0 0 46 46" fill="none" xmlns="http://www.w3.org/2000/svg">
<circle cx="23" cy="23" r="23" fill="#2D2D2D"/>
<path fill-rule="evenodd" clip-rule="evenodd" d="M29.4577 8.99994C29.605 8.99994 29.7244 9.11933 29.7244 9.26661V20.5999C29.7244 20.7472 29.605 20.8666 29.4577 20.8666C29.3105 20.8666 29.1911 20.7472 29.1911 20.5999V9.26661C29.1911 9.11933 29.3105 8.99994 29.4577 8.99994ZM26 10.7147C26.31 10.7147 26.5614 10.4634 26.5614 10.1533C26.5614 9.84326 26.31 9.59191 26 9.59191C25.6899 9.59191 25.4386 9.84326 25.4386 10.1533C25.4386 10.4634 25.6899 10.7147 26 10.7147ZM26 11.2155C26.5866 11.2155 27.0622 10.74 27.0622 10.1533C27.0622 9.56668 26.5866 9.09112 26 9.09112C25.4134 9.09112 24.9378 9.56668 24.9378 10.1533C24.9378 10.74 25.4134 11.2155 26 11.2155ZM27.1228 12.2474H24.8772C24.6006 12.2474 24.3764 12.4716 24.3764 12.7482V16.5568H24.9378V16.5266H25.4386H25.4689V17.0576H25.4386V20.2746H26.5614V17.0576H26.5311V16.5266H26.5614H27.0622V16.5568H27.6236V12.7482C27.6236 12.4716 27.3994 12.2474 27.1228 12.2474ZM24.3764 17.0576H24.9378V20.2746V20.7754H25.4386H26.5614H27.0622V20.2746V17.0576H27.6236H28.1244V16.5568V12.7482C28.1244 12.195 27.676 11.7466 27.1228 11.7466H24.8772C24.324 11.7466 23.8756 12.195 23.8756 12.7482V16.5568V17.0576H24.3764ZM17.8346 19.3329C18.7689 19.3329 19.5264 18.5774 19.5264 17.6454C19.5264 16.7135 18.7689 15.9579 17.8346 15.9579C16.9003 15.9579 16.1429 16.7135 16.1429 17.6454C16.1429 18.5774 16.9003 19.3329 17.8346 19.3329ZM11.3927 24.241C12.4204 23.3066 13.6934 22.6831 15.0629 22.4432L15.0752 22.441L15.3643 24.0997L15.3643 24.0999L15.3629 24.1002L15.3549 24.1015C14.2996 24.2864 13.3189 24.7671 12.5273 25.4876L12.5242 25.4904C11.7319 26.2126 11.1625 27.1452 10.8829 28.1789L10.8823 28.1809C10.6031 29.2146 10.6252 30.3062 10.9459 31.3277L10.9466 31.33C11.2679 32.3516 11.8745 33.2606 12.6953 33.9503L12.6985 33.953C13.5207 34.6428 14.5232 35.0842 15.5882 35.2252L15.5893 35.2254C16.6547 35.3663 17.7383 35.2007 18.7126 34.7483L18.7155 34.7469C19.6886 34.2943 20.512 33.5743 21.0891 32.6712L21.0912 32.668C21.6672 31.7654 21.9733 30.7177 21.9738 29.6478L21.9738 29.6455H23.6618C23.6618 31.0382 23.263 32.4019 22.5125 33.5763L22.5104 33.5795C22.4568 33.6634 22.4016 33.7459 22.3447 33.8273C21.606 34.8843 20.5993 35.7294 19.4251 36.2747L19.4221 36.276C18.1575 36.8627 16.7513 37.0773 15.3686 36.8947L15.3675 36.8945C13.9848 36.7117 12.683 36.1392 11.6152 35.2442L11.612 35.2415C10.5441 34.3456 9.75478 33.1642 9.33673 31.8362L9.33601 31.8339C8.91815 30.5051 8.88942 29.0848 9.25321 27.7402L9.25377 27.7381C9.59251 26.4875 10.2577 25.3509 11.1792 24.443C11.2479 24.3753 11.318 24.3089 11.3895 24.2438L11.3927 24.241ZM16.5189 21.2108C16.5189 20.5879 17.0239 20.0829 17.6468 20.0829C18.2696 20.0829 18.7746 20.5879 18.7746 21.2108V26.0829H24.4165C24.7502 26.0829 25.05 26.2282 25.256 26.4591C25.2927 26.4922 25.3276 26.5282 25.3605 26.5669L29.7326 31.7176C30.1353 32.192 30.0763 32.902 29.601 33.3035C29.1256 33.705 28.4138 33.6459 28.0111 33.1715L23.904 28.3329H17.6534L17.6468 28.3329L17.638 28.3329C17.0194 28.3298 16.5188 27.8273 16.5188 27.2079L16.5189 27.1948V21.2108ZM33.4242 10.7147C33.7343 10.7147 33.9856 10.4634 33.9856 10.1533C33.9856 9.84326 33.7343 9.59191 33.4242 9.59191C33.1142 9.59191 32.8628 9.84326 32.8628 10.1533C32.8628 10.4634 33.1142 10.7147 33.4242 10.7147ZM33.4242 11.2155C34.0109 11.2155 34.4864 10.74 34.4864 10.1533C34.4864 9.56668 34.0109 9.09112 33.4242 9.09112C32.8376 9.09112 32.362 9.56668 32.362 10.1533C32.362 10.74 32.8376 11.2155 33.4242 11.2155ZM35.4007 16.5568L33.8907 12.547C33.8228 12.3667 33.6503 12.2474 33.4577 12.2474C33.2651 12.2474 33.0927 12.3667 33.0248 12.547L31.5148 16.5568H32.362V16.5266H32.8628H32.8931V17.0576H32.8628V20.2746H33.9856V17.0576H33.9553V16.5266H33.9856H34.4864V16.5568H35.4007ZM31.3262 17.0576H32.362V20.2746V20.7754H32.8628H33.9856H34.4864V20.2746V17.0576H35.5893H36.1244L35.9358 16.5568L34.3593 12.3705C34.218 11.9951 33.8588 11.7466 33.4577 11.7466C33.0566 11.7466 32.6975 11.9951 32.5561 12.3705L30.9797 16.5568L30.7911 17.0576H31.3262Z" fill="white"/>
</svg>
