<svg width="24" height="24" viewBox="0 0 24 24" fill="none" xmlns="http://www.w3.org/2000/svg">
<ellipse cx="10.0967" cy="1.92857" rx="1.93342" ry="1.92857" fill="#AFB1B6"/>
<mask id="path-2-inside-1_228_18907" fill="white">
<path d="M16.7563 15.6428C16.7563 17.2345 16.3006 18.7931 15.4429 20.1352C14.5851 21.4774 13.3609 22.5473 11.9144 23.2191C10.4678 23.8909 8.85896 24.1367 7.27712 23.9275C5.69529 23.7183 4.20623 23.0629 2.9851 22.0384C1.76397 21.0138 0.861558 19.6627 0.384007 18.144C-0.0935452 16.6252 -0.126373 15.0021 0.289384 13.4654C0.705141 11.9287 1.55219 10.5424 2.7309 9.46951C3.90961 8.39665 5.37096 7.68186 6.94305 7.40922L7.27349 9.30507C6.06338 9.51493 4.93852 10.0651 4.03122 10.891C3.12391 11.7168 2.4719 12.7839 2.15188 13.9668C1.83185 15.1496 1.85712 16.399 2.22471 17.5681C2.59231 18.7371 3.28693 19.7771 4.22689 20.5657C5.16684 21.3544 6.31304 21.8589 7.53064 22.0199C8.74825 22.1809 9.98663 21.9917 11.1001 21.4746C12.2136 20.9575 13.1559 20.134 13.8162 19.1008C14.4764 18.0677 14.8272 16.868 14.8272 15.6428H16.7563Z"/>
</mask>
<path d="M16.7563 15.6428C16.7563 17.2345 16.3006 18.7931 15.4429 20.1352C14.5851 21.4774 13.3609 22.5473 11.9144 23.2191C10.4678 23.8909 8.85896 24.1367 7.27712 23.9275C5.69529 23.7183 4.20623 23.0629 2.9851 22.0384C1.76397 21.0138 0.861558 19.6627 0.384007 18.144C-0.0935452 16.6252 -0.126373 15.0021 0.289384 13.4654C0.705141 11.9287 1.55219 10.5424 2.7309 9.46951C3.90961 8.39665 5.37096 7.68186 6.94305 7.40922L7.27349 9.30507C6.06338 9.51493 4.93852 10.0651 4.03122 10.891C3.12391 11.7168 2.4719 12.7839 2.15188 13.9668C1.83185 15.1496 1.85712 16.399 2.22471 17.5681C2.59231 18.7371 3.28693 19.7771 4.22689 20.5657C5.16684 21.3544 6.31304 21.8589 7.53064 22.0199C8.74825 22.1809 9.98663 21.9917 11.1001 21.4746C12.2136 20.9575 13.1559 20.134 13.8162 19.1008C14.4764 18.0677 14.8272 16.868 14.8272 15.6428H16.7563Z" stroke="#AFB1B6" stroke-width="8.36363" mask="url(#path-2-inside-1_228_18907)"/>
<path fill-rule="evenodd" clip-rule="evenodd" d="M8.59301 6.00324C8.59301 5.29138 9.17009 4.71429 9.88195 4.71429C10.5938 4.71429 11.1709 5.29137 11.1709 6.00324V11.5714L17.6188 11.5714C18.0003 11.5714 18.3429 11.7375 18.5784 12.0014C18.6203 12.0392 18.6601 12.0803 18.6976 12.1245L23.6943 18.011C24.1545 18.5532 24.0872 19.3646 23.5439 19.8235C23.0006 20.2823 22.1871 20.2148 21.727 19.6727L17.0331 14.1428H9.89003L9.88195 14.1429L9.86782 14.1428C9.16274 14.137 8.59296 13.5636 8.59296 12.8571L8.59301 12.8458V6.00324Z" fill="#AFB1B6"/>
</svg>
